<svg height="247" viewBox="0 0 274 247" width="274" xmlns="http://www.w3.org/2000/svg"><path d="m256.5 126.5s68 39 127.5-.5" fill="none" stroke="#666" stroke-miterlimit="10"/><path d="m248.5 125.5s68 39 127.5-.5" fill="none" stroke="#666" stroke-miterlimit="10"/><path d="m233.47 136.86h5.01v86.46h-5.01z" fill="#524d87"/><path d="m238.48 136.86h5.01v86.46h-5.01z" fill="#483d8b"/><rect fill="#ffde72" height="5.27" rx="2.64" width="6.01" x="216.95" y="124.32"/><path d="m217.71 129.59h4.51v2h-4.51z" fill="#524d87"/><rect fill="#ffde72" height="5.27" rx="2.64" width="6.01" x="224.96" y="124.32"/><path d="m225.71 129.59h4.51v2h-4.51z" fill="#524d87"/><rect fill="#ffc814" height="5.27" rx="2.64" transform="matrix(-1 0 0 -1 513.99 253.91)" width="6.01" x="253.99" y="124.32"/><path d="m254.74 129.59h4.51v2h-4.51z" fill="#483d8b" transform="matrix(-1 0 0 -1 513.99 261.18)"/><rect fill="#ffc814" height="5.27" rx="2.64" transform="matrix(-1 0 0 -1 497.97 253.91)" width="6.01" x="245.98" y="124.32"/><path d="m246.73 129.59h4.51v2h-4.51z" fill="#483d8b" transform="matrix(-1 0 0 -1 497.97 261.18)"/><path d="m217 131.59a1 1 0 0 0 -1 1v3.27a1 1 0 0 0 1 1h21.53v-5.27z" fill="#565387"/><path d="m260 131.59h-21.52v5.27h21.52a1 1 0 0 0 1-1v-3.27a1 1 0 0 0 -1-1z" fill="#524d87"/><path d="m257.97 136.86-14.49 25.37v-6.06l11.03-19.31z" fill="#565387"/><path d="m218.99 136.86 14.48 25.37v-6.06l-11.03-19.31z" fill="#565387"/><path d="m186.58 48.25h-34.39a49.54 49.54 0 0 1 49.53 49.53h34.39a49.53 49.53 0 0 0 -49.53-49.53z" fill="#524d87"/><path d="m222 48.25h-35.42a49.53 49.53 0 0 1 49.53 49.53h35.42a49.53 49.53 0 0 0 -49.53-49.53z" fill="#483d8b"/><path d="m152.19 48.25h-1a49.54 49.54 0 0 0 -49.54 49.53h100.07a49.54 49.54 0 0 0 -49.53-49.53z" fill="#565387"/><path d="m203.72 98h69.81v133.98h-69.81z" fill="#6d6d6d"/><path d="m103.63 98h100.08v133.98h-100.08z" fill="#a8a8a8"/><path d="m235.13 190.99-15.85 15.85h6.38l9.47-9.47z" fill="#565387"/><path d="m235.13 197.37-9.47 9.47h9.47z" fill="#483d8b"/><path d="m219.28 206.84 15.85-15.85h-15.85z" fill="#483d8b"/><path d="m260.88 190.99-15.85 15.85h6.38l9.47-9.47z" fill="#565387"/><path d="m260.88 197.37-9.47 9.47h9.47z" fill="#483d8b"/><path d="m245.03 206.84 15.85-15.85h-15.85z" fill="#483d8b"/><path d="m13.63 166.06h85.07v65.71h-85.07z" fill="#a8a8a8"/><path d="m13.63 152.09h85.07v13.97h-85.07z" fill="#6d6d6d"/><path d="m56.17 185.59h16.43v46.17h-16.43z" fill="#4c3220"/><path d="m39.74 185.59h3.58v46.17h-3.58z" fill="#4c3220"/><path d="m43.33 185.59h12.84v46.17h-12.84z" fill="#5b402b"/><path d="m49.67 201.11h3v15.14h-3z" fill="#bcbcbc"/><path d="m59.67 201.11h3v15.14h-3z" fill="#6d6d6d"/><path d="m153.68 185.59h16.43v46.17h-16.43z" fill="#4c3220"/><path d="m137.25 185.59h3.58v46.17h-3.58z" fill="#4c3220"/><path d="m140.83 185.59h12.84v46.17h-12.84z" fill="#5b402b"/><path d="m147.18 201.11h3v15.14h-3z" fill="#bcbcbc"/><path d="m157.18 201.11h3v15.14h-3z" fill="#6d6d6d"/><path d="m70.75 138.12h5.89v13.97h-20.45v-13.97z" fill="#4c4c4c"/><path d="m35.7 138.12h5.88 14.61v13.97h-20.49z" fill="#6d6d6d"/><path d="m56.19 78.54h12.6l.69 20.84h-13.29z" fill="#a8a8a8"/><path d="m56.19 99.38h-13.25l.73-20.84h12.52z" fill="#ededed"/><path d="m56.19 119.48h-13.96l.71-20.1h13.25z" fill="#524d87"/><path d="m56.19 99.38h13.29l.66 20.1h-13.95z" fill="#483d8b"/><path d="m56.19 119.48h13.95l.61 18.64h-14.56z" fill="#a8a8a8"/><path d="m56.19 138.12h-14.61l.65-18.64h13.96z" fill="#ededed"/><path d="m56.19 78.54h-12.52l.7-20.1h11.82z" fill="#524d87"/><path d="m56.19 58.44h11.94l.66 20.1h-12.6z" fill="#483d8b"/><path d="m45.07 38.33.68-19.36h10.44v19.36z" fill="#524d87"/><path d="m56.19 18.97h10.64l.64 19.36h-11.28z" fill="#483d8b"/><path d="m56.19 38.33h11.28l.66 20.11h-11.94z" fill="#a8a8a8"/><path d="m56.19 58.44h-11.82l.7-20.11h11.12z" fill="#ededed"/><path d="m45.75 18.97h21.08l.21 6.29h-21.51z" fill="#483d8b"/><path d="m35.7 147.69h25.47v4.4h-25.47z" fill="#4c4c4c"/><path d="m98.7 152.09h5.3v13.97h-5.3z" fill="#4c4c4c"/><path d="m98.7 166.06h5.3v65.61h-5.3z" fill="#6d6d6d"/><g fill="#fff" stroke="#fff" stroke-miterlimit="10"><path d="m120.25 119h-.55a4 4 0 0 0 -.27-.69 5.52 5.52 0 0 0 -.42-.75 3.72 3.72 0 0 0 -.52-.64 1.09 1.09 0 0 0 -.56-.32c-.16 0-.37 0-.62 0h-1.17v9.11a1.14 1.14 0 0 0 .11.49.82.82 0 0 0 .39.34 5.87 5.87 0 0 0 .61.15 4.29 4.29 0 0 0 .72.1v.57h-5.38v-.57l.69-.06a2.38 2.38 0 0 0 .63-.12.76.76 0 0 0 .39-.3.93.93 0 0 0 .13-.53v-9.18h-1.09c-.24 0-.48 0-.7 0a1 1 0 0 0 -.55.32 4.19 4.19 0 0 0 -.53.64 5.19 5.19 0 0 0 -.42.77 4 4 0 0 0 -.26.67h-.56v-3.09h9.93z"/><path d="m128 125.41a4 4 0 0 1 -1.33 1.51 3.33 3.33 0 0 1 -1.92.56 4 4 0 0 1 -1.67-.33 3.31 3.31 0 0 1 -1.19-.92 3.84 3.84 0 0 1 -.69-1.35 5.78 5.78 0 0 1 -.23-1.63 4.87 4.87 0 0 1 .24-1.51 4.55 4.55 0 0 1 .72-1.34 3.53 3.53 0 0 1 1.14-.92 3.3 3.3 0 0 1 1.52-.35 3.74 3.74 0 0 1 1.49.27 2.83 2.83 0 0 1 1 .75 2.89 2.89 0 0 1 .55 1.06 4.7 4.7 0 0 1 .18 1.33v.53h-5.24a6.1 6.1 0 0 0 .15 1.41 3.05 3.05 0 0 0 .47 1.12 2.22 2.22 0 0 0 .81.74 2.54 2.54 0 0 0 1.21.27 2.14 2.14 0 0 0 1.23-.34 3.21 3.21 0 0 0 1-1.2zm-1.77-3a6.65 6.65 0 0 0 -.08-1 3 3 0 0 0 -.24-.86 1.74 1.74 0 0 0 -.51-.6 1.41 1.41 0 0 0 -.83-.23 1.75 1.75 0 0 0 -1.4.7 3.28 3.28 0 0 0 -.6 2z"/><path d="m134.13 123.4a1.87 1.87 0 0 1 .5.66 2.14 2.14 0 0 1 .18.93 2.25 2.25 0 0 1 -.82 1.79 3.17 3.17 0 0 1 -2.14.7 3.13 3.13 0 0 1 -1.27-.25 3.33 3.33 0 0 1 -.83-.45l-.16.52h-.59l-.08-2.76h.55a2.94 2.94 0 0 0 .27.74 3.3 3.3 0 0 0 .51.75 2.76 2.76 0 0 0 .75.6 2 2 0 0 0 1 .24 1.76 1.76 0 0 0 1.19-.35 1.4 1.4 0 0 0 .29-1.59 1.43 1.43 0 0 0 -.39-.43 3.27 3.27 0 0 0 -.65-.33c-.26-.1-.55-.2-.86-.29s-.53-.18-.84-.31a3.5 3.5 0 0 1 -.79-.46 2.27 2.27 0 0 1 -.58-.69 2 2 0 0 1 -.22-1 2.15 2.15 0 0 1 .72-1.64 2.72 2.72 0 0 1 1.93-.68 4.07 4.07 0 0 1 1 .12 3.56 3.56 0 0 1 .79.29l.18-.42h.58l.12 2.55h-.55a2.63 2.63 0 0 0 -.73-1.39 1.89 1.89 0 0 0 -1.36-.54 1.53 1.53 0 0 0 -1 .33 1 1 0 0 0 -.38.8 1.38 1.38 0 0 0 .13.61 1.19 1.19 0 0 0 .37.41 4.34 4.34 0 0 0 .61.3c.24.09.54.2.9.31a8.33 8.33 0 0 1 1 .4 3.08 3.08 0 0 1 .67.53z"/><path d="m139.72 127.27h-3.87v-.53h.4l.34-.06a.6.6 0 0 0 .34-.26.91.91 0 0 0 .11-.47v-9.17a1.26 1.26 0 0 0 -.12-.55 1.06 1.06 0 0 0 -.33-.39 1.37 1.37 0 0 0 -.53-.18 5.16 5.16 0 0 0 -.62-.1v-.56l3-.18.12.12v10.87a.9.9 0 0 0 .1.46.69.69 0 0 0 .34.28 2.06 2.06 0 0 0 .35.12h.39z"/><path d="m148.21 127.13-.66.22a2.18 2.18 0 0 1 -.65.08 1.56 1.56 0 0 1 -1-.29 1.33 1.33 0 0 1 -.47-.85h-.05a4 4 0 0 1 -1.12.88 3.19 3.19 0 0 1 -1.44.3 2.05 2.05 0 0 1 -1.47-.54 1.9 1.9 0 0 1 -.57-1.43 2.57 2.57 0 0 1 .12-.82 2 2 0 0 1 .39-.65 2 2 0 0 1 .53-.43 3.86 3.86 0 0 1 .62-.3l1.46-.51a11.1 11.1 0 0 0 1.49-.57v-.8a3 3 0 0 0 0-.4 1.55 1.55 0 0 0 -.19-.56 1.71 1.71 0 0 0 -.45-.52 1.36 1.36 0 0 0 -.83-.22 1.92 1.92 0 0 0 -.69.12 1.48 1.48 0 0 0 -.45.26 2.34 2.34 0 0 0 .08.48 2.52 2.52 0 0 1 .08.58.71.71 0 0 1 -.26.51 1 1 0 0 1 -.7.23.66.66 0 0 1 -.59-.28 1.12 1.12 0 0 1 -.19-.64 1.17 1.17 0 0 1 .26-.71 2.86 2.86 0 0 1 .68-.6 3.42 3.42 0 0 1 .88-.38 3.21 3.21 0 0 1 1-.16 6.83 6.83 0 0 1 1.18.09 2.39 2.39 0 0 1 .91.4 1.88 1.88 0 0 1 .62.81 3.49 3.49 0 0 1 .21 1.31v2s0 1.24 0 1.94a.83.83 0 0 0 .45.81.83.83 0 0 0 .38.08h.53zm-2.8-4.24c-.46.13-.85.27-1.2.39a4.49 4.49 0 0 0 -1 .49 2.29 2.29 0 0 0 -.64.64 1.71 1.71 0 0 0 -.23.89 1.15 1.15 0 0 0 1.24 1.3 1.77 1.77 0 0 0 1-.28 2.86 2.86 0 0 0 .73-.65z"/><path d="m161.9 118.69a3.5 3.5 0 0 1 -.35 1.58 3.21 3.21 0 0 1 -1 1.13 4.3 4.3 0 0 1 -1.34.66 5.63 5.63 0 0 1 -1.55.21h-1.28v3.45a1.28 1.28 0 0 0 .09.5.62.62 0 0 0 .38.32 2.23 2.23 0 0 0 .51.11 5.74 5.74 0 0 0 .68 0v.57h-4.9v-.57h.56a1.63 1.63 0 0 0 .51-.11.7.7 0 0 0 .35-.3 1.14 1.14 0 0 0 .11-.52v-8.22a1.54 1.54 0 0 0 -.08-.5.57.57 0 0 0 -.38-.34 3.29 3.29 0 0 0 -.6-.15l-.52-.06v-.57h5.2a4 4 0 0 1 2.58.77 2.43 2.43 0 0 1 1.03 2.04zm-2.45 1.94a2 2 0 0 0 .37-.8 4.16 4.16 0 0 0 .08-.74 4.33 4.33 0 0 0 -.1-.93 2.26 2.26 0 0 0 -.38-.83 1.86 1.86 0 0 0 -.74-.58 2.7 2.7 0 0 0 -1.14-.21h-1.13v5h.82a3.16 3.16 0 0 0 1.41-.27 2 2 0 0 0 .81-.64z"/><path d="m170.72 123.23a5.47 5.47 0 0 1 -.26 1.65 4 4 0 0 1 -.76 1.37 3.61 3.61 0 0 1 -1.29 1 4.07 4.07 0 0 1 -1.64.32 3.74 3.74 0 0 1 -1.44-.29 3.68 3.68 0 0 1 -1.21-.83 4.07 4.07 0 0 1 -.83-1.31 4.61 4.61 0 0 1 -.31-1.74 4.33 4.33 0 0 1 1.08-3 4 4 0 0 1 5.58-.06 4.12 4.12 0 0 1 1.08 2.89zm-1.66 0a7.24 7.24 0 0 0 -.12-1.27 4 4 0 0 0 -.36-1.14 2.32 2.32 0 0 0 -.68-.8 1.71 1.71 0 0 0 -1-.3 1.77 1.77 0 0 0 -1.06.31 2.23 2.23 0 0 0 -.71.83 3.78 3.78 0 0 0 -.36 1.12 7.35 7.35 0 0 0 -.11 1.21 7.17 7.17 0 0 0 .13 1.43 4.06 4.06 0 0 0 .39 1.16 2.32 2.32 0 0 0 .69.81 1.71 1.71 0 0 0 1 .29 1.78 1.78 0 0 0 1.59-1 5.17 5.17 0 0 0 .6-2.63z"/><path d="m183.66 119.87a1.71 1.71 0 0 0 -.73.28 1.39 1.39 0 0 0 -.56.75c-.27.79-.53 1.53-.76 2.23s-.51 1.5-.8 2.38q-.15.42-.3.9c-.1.32-.18.63-.27.92h-.68l-2.14-5.84-2.14 5.84h-.66q-.6-1.78-1.17-3.54c-.39-1.17-.72-2.19-1-3.05a1.1 1.1 0 0 0 -.49-.6 1.7 1.7 0 0 0 -.7-.25v-.53h3.53v.56a2.09 2.09 0 0 0 -.57.09c-.21 0-.31.14-.31.26a.7.7 0 0 0 0 .14c0 .07 0 .14.07.22.17.56.36 1.19.58 1.88s.5 1.59.84 2.7l2-5.69h.78l2.06 5.61c.23-.72.46-1.41.69-2.08s.42-1.3.59-1.89c0-.14.08-.26.11-.38a1 1 0 0 0 .06-.34.36.36 0 0 0 -.13-.26 1.22 1.22 0 0 0 -.32-.18 1.61 1.61 0 0 0 -.35-.1h-.27v-.51h3z"/><path d="m191 125.41a4 4 0 0 1 -1.33 1.51 3.33 3.33 0 0 1 -1.92.56 3.92 3.92 0 0 1 -1.67-.33 3.31 3.31 0 0 1 -1.19-.92 3.84 3.84 0 0 1 -.69-1.35 5.44 5.44 0 0 1 -.23-1.63 4.87 4.87 0 0 1 .24-1.51 4.33 4.33 0 0 1 .72-1.34 3.43 3.43 0 0 1 1.14-.92 3.3 3.3 0 0 1 1.52-.35 3.66 3.66 0 0 1 1.48.27 2.78 2.78 0 0 1 1 .75 3.05 3.05 0 0 1 .55 1.06 4.7 4.7 0 0 1 .18 1.33v.53h-5.24a6.12 6.12 0 0 0 .14 1.41 3.44 3.44 0 0 0 .47 1.12 2.33 2.33 0 0 0 .82.74 2.54 2.54 0 0 0 1.21.27 2.19 2.19 0 0 0 1.23-.34 3.3 3.3 0 0 0 1-1.2zm-1.77-3a6.65 6.65 0 0 0 -.08-1 3 3 0 0 0 -.24-.86 1.85 1.85 0 0 0 -.51-.6 1.41 1.41 0 0 0 -.83-.23 1.74 1.74 0 0 0 -1.4.7 3.28 3.28 0 0 0 -.6 2z"/><path d="m198 120.38a1.34 1.34 0 0 1 -.2.72.68.68 0 0 1 -.62.32 1 1 0 0 1 -.69-.23.75.75 0 0 1 -.23-.52 1.66 1.66 0 0 1 0-.32c0-.09 0-.19.05-.29a1.76 1.76 0 0 0 -.89.31 2.53 2.53 0 0 0 -.85.87v4.6a.9.9 0 0 0 .1.46.71.71 0 0 0 .34.27 2.68 2.68 0 0 0 .52.12h.55v.53h-4.17v-.53h.38a1.59 1.59 0 0 0 .34-.06.57.57 0 0 0 .33-.25.84.84 0 0 0 .11-.47v-4.91a1.11 1.11 0 0 0 -.12-.49.85.85 0 0 0 -.32-.38 1 1 0 0 0 -.36-.14 3.06 3.06 0 0 0 -.45-.06v-.53l2.63-.18.12.11v1.12a3.76 3.76 0 0 1 1.1-1 2.42 2.42 0 0 1 1.12-.34 1.08 1.08 0 0 1 .82.33 1.24 1.24 0 0 1 .39.94z"/><path d="m144.45 138.43a3.43 3.43 0 0 1 -.35 1.57 3.25 3.25 0 0 1 -1 1.14 4.3 4.3 0 0 1 -1.34.66 5.63 5.63 0 0 1 -1.55.21h-1.21v3.45a1.22 1.22 0 0 0 .09.49.66.66 0 0 0 .39.33 2.11 2.11 0 0 0 .51.1 5.54 5.54 0 0 0 .67.06v.56h-4.89v-.57l.55-.06a1.71 1.71 0 0 0 .51-.1.67.67 0 0 0 .35-.31 1.07 1.07 0 0 0 .11-.51v-8.22a1.6 1.6 0 0 0 -.08-.51.59.59 0 0 0 -.38-.34 3.29 3.29 0 0 0 -.6-.15l-.52-.06v-.57h5.2a4.1 4.1 0 0 1 2.58.77 2.44 2.44 0 0 1 .96 2.06zm-2.45 1.94a2.07 2.07 0 0 0 .37-.8 4.26 4.26 0 0 0 .08-.74 4.2 4.2 0 0 0 -.1-.93 2.19 2.19 0 0 0 -.38-.83 1.82 1.82 0 0 0 -.74-.59 2.7 2.7 0 0 0 -1.14-.21h-1.09v5h.82a3.16 3.16 0 0 0 1.41-.27 2 2 0 0 0 .77-.63z"/><path d="m149.26 147h-3.87v-.53h.4a1.39 1.39 0 0 0 .34-.06.62.62 0 0 0 .34-.25.93.93 0 0 0 .11-.47v-9.18a1.25 1.25 0 0 0 -.12-.54 1.09 1.09 0 0 0 -.33-.4 1.62 1.62 0 0 0 -.53-.17 3.71 3.71 0 0 0 -.62-.1v-.51l3-.18.12.12v10.86a.94.94 0 0 0 .1.47.63.63 0 0 0 .34.27 1.12 1.12 0 0 0 .35.12 2 2 0 0 0 .39.06z"/><path d="m157.75 146.86c-.25.1-.47.17-.66.23a2.57 2.57 0 0 1 -.65.08 1.63 1.63 0 0 1 -1-.29 1.35 1.35 0 0 1 -.44-.88h-.05a4 4 0 0 1 -1.12.89 3.19 3.19 0 0 1 -1.44.3 2 2 0 0 1 -1.47-.55 1.88 1.88 0 0 1 -.57-1.43 2.55 2.55 0 0 1 .12-.81 1.94 1.94 0 0 1 .39-.65 1.64 1.64 0 0 1 .53-.43 5.11 5.11 0 0 1 .61-.32l1.46-.5a10.73 10.73 0 0 0 1.49-.58v-.79a3.1 3.1 0 0 0 0-.41 1.69 1.69 0 0 0 -.19-.56 1.71 1.71 0 0 0 -.45-.52 1.43 1.43 0 0 0 -.83-.22 1.73 1.73 0 0 0 -.69.13 1.3 1.3 0 0 0 -.45.26 2.27 2.27 0 0 0 .08.47 2.52 2.52 0 0 1 .08.58.67.67 0 0 1 -.26.51 1 1 0 0 1 -.7.24.66.66 0 0 1 -.59-.29 1.1 1.1 0 0 1 -.19-.64 1.15 1.15 0 0 1 .26-.7 2.69 2.69 0 0 1 .68-.61 3.81 3.81 0 0 1 .88-.38 3.52 3.52 0 0 1 1-.15 6.83 6.83 0 0 1 1.18.09 2.12 2.12 0 0 1 .91.4 1.79 1.79 0 0 1 .62.8 3.51 3.51 0 0 1 .21 1.32v2s0 1.24 0 1.94a1 1 0 0 0 .11.5.93.93 0 0 0 .34.31.72.72 0 0 0 .38.08h.53zm-2.8-4.24c-.46.14-.85.27-1.2.4a5 5 0 0 0 -.95.48 2.2 2.2 0 0 0 -.64.65 1.71 1.71 0 0 0 -.23.89 1.15 1.15 0 0 0 1.24 1.29 1.85 1.85 0 0 0 1-.27 3.1 3.1 0 0 0 .73-.66z"/><path d="m167.28 147h-3.87v-.53h.41a1.09 1.09 0 0 0 .36-.07.59.59 0 0 0 .34-.25.93.93 0 0 0 .11-.47v-4.07a1.94 1.94 0 0 0 -.4-1.3 1.23 1.23 0 0 0 -1-.46 2.13 2.13 0 0 0 -.78.13 2.67 2.67 0 0 0 -.63.33 1.47 1.47 0 0 0 -.42.4 2.55 2.55 0 0 0 -.23.34v4.55a.79.79 0 0 0 .11.45.67.67 0 0 0 .34.27 1.09 1.09 0 0 0 .36.12 2.7 2.7 0 0 0 .41.06v.5h-3.88v-.53h.38a1.07 1.07 0 0 0 .34-.07.58.58 0 0 0 .34-.25.94.94 0 0 0 .1-.47v-4.88a1.15 1.15 0 0 0 -.11-.5 1 1 0 0 0 -.33-.38 1.18 1.18 0 0 0 -.36-.14 3.06 3.06 0 0 0 -.45-.06v-.53l2.63-.17.12.11v1.11l.48-.46a4.07 4.07 0 0 1 .55-.44 3 3 0 0 1 1.63-.45 2 2 0 0 1 1.69.72 3 3 0 0 1 .55 1.89v4.12a1 1 0 0 0 .09.45.75.75 0 0 0 .33.27l.33.11a2.9 2.9 0 0 0 .39 0z"/><path d="m173.15 146.66c-.35.15-.68.27-1 .37a3.75 3.75 0 0 1 -1.14.15 1.71 1.71 0 0 1 -1.4-.5 2.22 2.22 0 0 1 -.41-1.42v-5.37h-1.43v-.77h1.46v-2.46h1.47v2.46h2.3v.77h-2.26v4.43a6.47 6.47 0 0 0 0 .83 1.46 1.46 0 0 0 .17.58.81.81 0 0 0 .39.36 1.64 1.64 0 0 0 .69.12h.59a2.27 2.27 0 0 0 .55-.09z"/></g><path d="m237.39 116.29-17.21 36.25a1.78 1.78 0 0 0 1.61 2.54h17.21v-39.8a1.78 1.78 0 0 0 -1.61 1.01z" fill="#59549b"/><path d="m257.83 152.54-17.22-36.25a1.76 1.76 0 0 0 -1.61-1v39.8h17.22a1.78 1.78 0 0 0 1.61-2.55z" fill="#483d8b"/><path d="m238.24 120.42-14.69 30.92a.85.85 0 0 0 .77 1.21h14.68v-32.61a.83.83 0 0 0 -.76.48z" fill="#d6af56"/><path d="m254.45 151.34-14.68-30.92a.85.85 0 0 0 -.77-.48v32.61h14.69a.84.84 0 0 0 .76-1.21z" fill="#daa520"/><path d="m240.48 132.5c.55-1 1.08-1.93 1.57-2.92-.81.76-1.57 1.56-2.32 2.36l-.73.8v2.26c.51-.84 1-1.66 1.48-2.5z" fill="#ffc814"/><path d="m238.41 143.59-.88 1.39c-.57.94-1.14 1.88-1.69 2.84s-1.07 1.92-1.57 2.92c.81-.77 1.57-1.57 2.32-2.37s1.48-1.63 2.2-2.46l.21-.26v-3z" fill="#ffde72"/><path d="m238.16 139h-1.75l.61-.9.89-1.38.88-1.39.21-.33v-2.24l-1.47 1.66-1.07 1.26-1 1.26-1 1.28-1 1.29-1.46 1.72h2.26 1.95 2.79v-2.23z" fill="#ffde72"/><path d="m242.05 139.04-1.95-.04h-1.1v2.32l.91-.01-.6.91-.31.46v2.98l.86-1.01 1.04-1.26 1.03-1.28 1.02-1.29 1.36-1.74z" fill="#ffc814"/></svg>