<svg height="74" viewBox="0 0 808 74" width="808" xmlns="http://www.w3.org/2000/svg"><path d="m660.14 45.52h27.6v2.47h-27.6z" fill="#333"/><path d="m562.86 43.68v2h-98.65v-2h-4.34v9.32h4.34v-2.63h6.89v1.63h2.07a6.3 6.3 0 1 0 10.53 4.65 5.67 5.67 0 0 0 -.1-1.09h3.4a6.59 6.59 0 0 0 -.1 1.09 6.3 6.3 0 1 0 10.56-4.65h2.06v-1.63h27.41v1.63h2.07a6.3 6.3 0 1 0 10.54 4.65 6.59 6.59 0 0 0 -.1-1.09h3.42a6.59 6.59 0 0 0 -.1 1.09 6.3 6.3 0 1 0 10.53-4.65h2.06v-1.63h7.51v2.63h4.33v-9.32z" fill="#2a3a3f" fill-rule="evenodd"/><path d="m562.86 43.68v1.97h-98.65v-1.97h-4.33v1.97 4.72 2.66h4.33v-2.66h3.45 3.44 28.42 27.41 28.42 4.17 3.34v2.66h4.34v-2.66-4.72-1.97z" fill="#1f1f1f" fill-rule="evenodd"/><path d="m555.48 14h-10.43v31.7h10.43c1.76 0 5-7.09 5-15.83s-3.24-15.87-5-15.87z" fill="#524d87" fill-rule="evenodd"/><path d="m533.48 27.83h8.73v4.06h-8.73z" fill="#524d87"/><path d="m533.48 41.64h8.73v4.06h-8.73z" fill="#524d87"/><path d="m533.48 34.74h8.73v4.06h-8.73z" fill="#524d87"/><path d="m533.48 20.93h8.73v4.06h-8.73z" fill="#524d87"/><path d="m530.64 9.2h2.84v4.82h-2.84z" fill="#524d87"/><path d="m542.21 9.2h2.84v4.82h-2.84z" fill="#524d87"/><path d="m527.34 9.56h-27.61v4.44h-28.14c-1.76 0-5 7.09-5 15.84s3.28 15.83 5 15.83h59.05v-31.67h-3.3z" fill="#524d87" fill-rule="evenodd"/><path d="m533.48 14.03h8.73v4.06h-8.73z" fill="#524d87"/><path d="m530.64 9.2h2.84v8.89h8.73v-8.89h2.84v36.5h-2.84v-4.06h-8.73v4.06h-2.84zm11.57 29.6v-4.06h-8.73v4.06zm0-6.9v-4.07h-8.73v4.07zm0-6.91v-4.06h-8.73v4.07z" fill="#4f2215" fill-rule="evenodd"/><path d="m493.29 62.9a6.23 6.23 0 1 0 -6.23-6.23 6.24 6.24 0 0 0 6.23 6.23z" fill="#342b28" fill-rule="evenodd"/><path d="m477.37 62.9a6.23 6.23 0 1 0 -6.23-6.23 6.24 6.24 0 0 0 6.23 6.23z" fill="#342b28" fill-rule="evenodd"/><path d="m477.37 59.56a2.9 2.9 0 1 0 -2.9-2.89 2.9 2.9 0 0 0 2.9 2.89z" fill="#f7b82e" fill-rule="evenodd"/><path d="m493.29 59.56a2.9 2.9 0 1 0 -2.89-2.89 2.9 2.9 0 0 0 2.89 2.89z" fill="#f7b82e" fill-rule="evenodd"/><path d="m527.34 14h-55.75c-.73 0-1.73 1.23-2.65 3.31h61.7v-3.31zm17.71 0v3.31h13.08c-.92-2.08-1.92-3.31-2.65-3.31zm-11.57 0v4.06h8.73v-4.06z" fill="#483d8b" fill-rule="evenodd"/><path d="m499.73 9.56h27.61v4.47h-27.61z" fill="#483d8b"/><g fill-rule="evenodd"><path d="m549.06 63a6.23 6.23 0 1 0 -6.23-6.23 6.24 6.24 0 0 0 6.23 6.23z" fill="#332c2b"/><path d="m549.06 59.63a2.89 2.89 0 1 0 -2.89-2.89 2.9 2.9 0 0 0 2.89 2.89z" fill="#bf822c"/><path d="m533.18 63a6.23 6.23 0 1 0 -6.18-6.26 6.24 6.24 0 0 0 6.18 6.26z" fill="#332c2b"/><path d="m533.18 59.63a2.89 2.89 0 1 0 -2.89-2.89 2.9 2.9 0 0 0 2.89 2.89z" fill="#bf822c"/><path d="m471.1 50.37v1.63h2.07a6.3 6.3 0 1 0 10.53 4.65 5.67 5.67 0 0 0 -.1-1.09h3.4a6.59 6.59 0 0 0 -.1 1.09 6.3 6.3 0 0 0 12.6.16 6.23 6.23 0 1 1 -.49-2.59 6.37 6.37 0 0 0 -1.55-2.22h2.06v-1.63zm6.27.07a6.23 6.23 0 1 1 -6.23 6.23 6.23 6.23 0 0 1 6.23-6.23z" fill="#2b454c"/><path d="m513.53 45.7h-41.94a1 1 0 0 1 -.28-.05h-7.1v-2h-4.34v9.35h4.34v-2.63h49.32z" fill="#333"/><path d="m468.94 17.34a32.35 32.35 0 0 0 -2.39 12.53c0 8.74 3.28 15.83 5 15.83h41.94v-28.36z" fill="#5f5f82"/><path d="m493.29 50.44a6.23 6.23 0 1 1 -6.23 6.23 6.23 6.23 0 0 1 6.23-6.23zm0 3.33a2.9 2.9 0 1 0 2.9 2.9 2.9 2.9 0 0 0 -2.9-2.9z" fill="#342b28"/><path d="m477.37 50.44a6.23 6.23 0 1 1 -6.23 6.23 6.23 6.23 0 0 1 6.23-6.23zm0 3.33a2.9 2.9 0 1 0 2.89 2.9 2.9 2.9 0 0 0 -2.89-2.9z" fill="#342b28"/><path d="m477.37 53.77a2.9 2.9 0 1 1 -2.9 2.9 2.89 2.89 0 0 1 2.9-2.9z" fill="#bf822c"/><path d="m493.29 53.77a2.9 2.9 0 1 1 -2.89 2.9 2.9 2.9 0 0 1 2.89-2.9z" fill="#bf822c"/><path d="m513.53 14h-41.94c-.73 0-1.73 1.23-2.65 3.31h44.59z" fill="#534e87"/></g><path d="m499.73 9.56h13.81v4.47h-13.81z" fill="#534e87"/><path d="m477.37 33.43h2.89v12.48h-2.89z" fill="#333"/><path d="m468.94 29.87h2.89v16.04h-2.89z" fill="#333"/><path d="m547.29 33.43h2.89v12.48h-2.89z" fill="#333"/><path d="m555.71 29.87h2.89v16.04h-2.89z" fill="#333"/><path d="m441.39 29.34h-77v-3.27h77zm0 16h-77v-3.25h77v3.26zm14.61-.43v1.9h-3.47v-4.72h-5v-17.65h3.67v-4.18h-96.1v4.18h3.32v17.65h-5.16v4.72h-3.46v-1.9h-3.54v8.56h3.67v-2.31h9.22l1.36 3.06h1a6.66 6.66 0 1 0 13.32 0h1.26l1.23-2.75h3.28l1.22 2.75h1a6.67 6.67 0 0 0 13.33 0h1.26l.83-2.75h3l1.06 2.75h1.8a6.66 6.66 0 1 0 13.32 0h1.64l1.08-2.85h3.37l1.22 2.85h1.53a6.67 6.67 0 0 0 13.33 0h1.41l.72-3.06h14.12v2.31h3.67v-8.56z" fill="#524d87" fill-rule="evenodd"/><path d="m410.59 60.79a6.43 6.43 0 1 0 -6.59-6.42 6.53 6.53 0 0 0 6.59 6.42z" fill="#333" fill-rule="evenodd"/><path d="m433.06 60.79a6.43 6.43 0 1 0 -6.61-6.42 6.53 6.53 0 0 0 6.61 6.42z" fill="#333" fill-rule="evenodd"/><path d="m433.06 56.79a2.43 2.43 0 1 0 -2.49-2.42 2.47 2.47 0 0 0 2.49 2.42z" fill="#bf822c" fill-rule="evenodd"/><path d="m410.59 56.79a2.43 2.43 0 1 0 -2.49-2.42 2.47 2.47 0 0 0 2.49 2.42z" fill="#bf822c" fill-rule="evenodd"/><path d="m389.71 60.79a6.43 6.43 0 1 0 -6.61-6.42 6.53 6.53 0 0 0 6.61 6.42z" fill="#566464" fill-rule="evenodd"/><path d="m389.71 56.79a2.43 2.43 0 1 0 -2.49-2.42 2.47 2.47 0 0 0 2.49 2.42z" fill="#404f8d" fill-rule="evenodd"/><path d="m368.12 60.79a6.43 6.43 0 1 0 -6.61-6.42 6.53 6.53 0 0 0 6.61 6.42z" fill="#566464" fill-rule="evenodd"/><path d="m368.12 56.79a2.43 2.43 0 1 0 -2.49-2.42 2.47 2.47 0 0 0 2.49 2.42z" fill="#404f8d" fill-rule="evenodd"/><path d="m355.1 20.26h96.08v4.18h-96.08z" fill="#483d8b"/><path d="m349.8 46.81h106.03v4.66h-106.03z" fill="#6f322c"/><path d="m346.26 44.91h3.53v8.57h-3.53z" fill="#f39821"/><path d="m455.82 44.91h3.67v8.57h-3.67z" fill="#d38724"/><path d="m359.15 51.16h18.19l-1.23 3.06h-15.6z" fill="#333" fill-rule="evenodd"/><path d="m380.62 51.16h18.19l-1.23 3.06h-15.6z" fill="#333" fill-rule="evenodd"/><path d="m400.65 51.16h19.89l-1.34 3.06h-17.06z" fill="#bf822c" fill-rule="evenodd"/><path d="m423.12 51.16h19.88l-1.33 3.06h-17.06z" fill="#333" fill-rule="evenodd"/><path d="m404 29.34h-39.58v-3.27h39.58v-1.63h-45.58v17.65h-5.16v4.72h50.74v-1.46h-39.58v-3.26h39.58zm-54.2 24.13h.13v-2h-.13zm24.94.75v.15a6.52 6.52 0 0 1 -6.62 6.42 6.66 6.66 0 0 1 -4.42-1.65 6.66 6.66 0 0 0 11.15-4.92zm1.37 0 1.23-2.75h-.13zm4.51-2.75 1.22 2.75h.16l-1.23-2.75zm2.24 2.75a6.66 6.66 0 0 0 6.67 6.66 6.55 6.55 0 0 0 2.76-.6 6.67 6.67 0 0 1 -2.58.51 6.51 6.51 0 0 1 -6.61-6.42v-.15z" fill="#5f5f82" fill-rule="evenodd"/><path d="m404 54.68c0-.11 0-.21 0-.31v-.15z" fill="#566464" fill-rule="evenodd"/><path d="m396.33 54.22v.15a6.62 6.62 0 0 1 -13.23 0v-.15h4.12v.15a2.5 2.5 0 0 0 5 0s0-.1 0-.15z" fill="#333" fill-rule="evenodd"/><path d="m392.2 54.22v.15a2.5 2.5 0 0 1 -5 0v-.15z" fill="#bf822c" fill-rule="evenodd"/><path d="m374.74 54.22v.15a6.62 6.62 0 0 1 -13.23 0v-.15h4.12v.15a2.5 2.5 0 0 0 5 0s0-.1 0-.15z" fill="#333" fill-rule="evenodd"/><path d="m370.61 54.22v.15a2.5 2.5 0 0 1 -5 0v-.15z" fill="#bf822c" fill-rule="evenodd"/><path d="m355.1 20.26h48.89v4.18h-48.89z" fill="#534e87"/><path d="m403.99 51.16h-3.34l.15.31h-2.12l.13-.31h-18.19l.13.31h-3.54l.13-.31h-18.19l.13.31h-9.48v-4.66h54.19z" fill="#6f322c" fill-rule="evenodd"/><path d="m346.26 44.91h3.54v8.57h-3.54z" fill="#f39821"/><path d="m359.15 51.16h18.19l-1.23 3.06h-15.6z" fill="#bf822c" fill-rule="evenodd"/><path d="m380.62 51.16h18.19l-1.23 3.06h-15.6z" fill="#bf822c" fill-rule="evenodd"/><path d="m400.65 51.16h3.34v3.06h-1.85z" fill="#d38724" fill-rule="evenodd"/><path d="m423.12 51.16h19.88l-1.33 3.06h-17.06z" fill="#bf822c" fill-rule="evenodd"/><path d="m569.33 14.41v4.44h3v27.15h89.63v-27.15h3v-4.44zm19.26 24h-8.87v-19.56h8.87v19.52zm16.44 0h-8.87v-19.56h8.84v19.52zm16.44 0h-8.87v-19.56h8.87v19.52zm16.44 0h-8.91v-19.56h8.87v19.52zm16.44 0h-8.87v-19.56h8.87z" fill="#5f5f82" fill-rule="evenodd"/><path d="m569.33 14.41h95.54v4.44h-95.54z" fill="#534e87"/><path d="m664.46 43.51v1.89h-94.71v-1.89h-4.16v9h4.16v-2.58h4.71v1.54h1.38v2h1.27a6.06 6.06 0 1 0 11 0h1.28v-2h1.37v-1.54h1.18v1.54h1.37v2h1.28a6 6 0 1 0 11 0h1.27v-2h1.38v-1.54h17.76v1.54h1.38v2h1.27a6 6 0 1 0 11 0h1.28v-2h1.37v-1.54h1.18v1.54h1.37v2h1.28a6 6 0 1 0 11.52 2.53 5.92 5.92 0 0 0 -.56-2.52h1.28v-2h1.37v-1.55h4.72v2.56h4.16v-9z" fill="#6f322c" fill-rule="evenodd"/><path d="m582.65 62a6 6 0 1 0 -6-6 6 6 0 0 0 6 6z" fill="#422c2a" fill-rule="evenodd"/><path d="m600.09 62a6 6 0 1 0 -6-6 6.05 6.05 0 0 0 6 6z" fill="#422c2a" fill-rule="evenodd"/><path d="m634.2 62a6 6 0 1 0 -6-6 6 6 0 0 0 6 6z" fill="#422c2a" fill-rule="evenodd"/><path d="m651.59 62a6 6 0 1 0 -6-6 6 6 0 0 0 6 6z" fill="#422c2a" fill-rule="evenodd"/><path d="m582.65 58.51a2.53 2.53 0 1 0 -2.53-2.51 2.52 2.52 0 0 0 2.53 2.51z" fill="#bf822c" fill-rule="evenodd"/><path d="m600.09 58.51a2.53 2.53 0 1 0 -2.53-2.51 2.52 2.52 0 0 0 2.53 2.51z" fill="#bf822c" fill-rule="evenodd"/><path d="m634.2 58.51a2.53 2.53 0 1 0 -2.53-2.51 2.52 2.52 0 0 0 2.53 2.51z" fill="#bf822c" fill-rule="evenodd"/><path d="m651.59 58.51a2.53 2.53 0 1 0 -2.53-2.51 2.52 2.52 0 0 0 2.53 2.51z" fill="#bf822c" fill-rule="evenodd"/><path d="m617.1 45.4h44.82v-26.55h-7.57v19.52h-8.87v-19.52h-7.57v19.52h-8.87v-19.52h-7.57v19.52h-4.37z" fill="#524d87" fill-rule="evenodd"/><path d="m617.1 14.41h47.77v4.44h-47.77z" fill="#483d8b"/><path d="m664.46 43.51v1.89h-47.36v4.53h8.9v1.54h1.38v2h1.27a6 6 0 0 0 5.5 8.57 6.36 6.36 0 0 0 1.24-.12 6.56 6.56 0 0 1 -1.18.11 6 6 0 1 1 5.48-8.56h1.23v-2h1.37v-1.54h1.18v1.54h1.37v2h1.27a6 6 0 1 1 1.32 6.9 6.05 6.05 0 0 0 10.22-4.37 5.92 5.92 0 0 0 -.56-2.52h1.28v-2h1.37v-1.55h4.72v2.56h4.16v-9z" fill="#5b2b28" fill-rule="evenodd"/><path d="m634.2 50a6 6 0 1 1 -6 6 6 6 0 0 1 6-6zm0 3.51a2.53 2.53 0 1 0 2.52 2.49 2.53 2.53 0 0 0 -2.52-2.54z" fill="#422c2a" fill-rule="evenodd"/><path d="m651.59 50a6 6 0 1 1 -6 6 6 6 0 0 1 6-6zm0 3.51a2.53 2.53 0 1 0 2.52 2.49 2.53 2.53 0 0 0 -2.52-2.54z" fill="#422c2a" fill-rule="evenodd"/><path d="m634.2 53.46a2.53 2.53 0 1 1 -2.53 2.54 2.52 2.52 0 0 1 2.53-2.54z" fill="#d89335" fill-rule="evenodd"/><path d="m651.59 53.46a2.53 2.53 0 1 1 -2.53 2.54 2.52 2.52 0 0 1 2.53-2.54z" fill="#d89335" fill-rule="evenodd"/><path d="m324.14 47.52h27.6v2.47h-27.6z" fill="#333"/><path d="m226.86 45.68v2h-98.65v-2h-4.34v9.32h4.34v-2.63h6.89v1.63h2.07a6.3 6.3 0 1 0 10.53 4.65 5.67 5.67 0 0 0 -.1-1.09h3.4a6.59 6.59 0 0 0 -.1 1.09 6.3 6.3 0 1 0 10.56-4.65h2.06v-1.63h27.41v1.63h2.07a6.3 6.3 0 1 0 10.54 4.65 6.59 6.59 0 0 0 -.1-1.09h3.42a6.59 6.59 0 0 0 -.1 1.09 6.3 6.3 0 1 0 10.53-4.65h2.06v-1.63h7.51v2.63h4.33v-9.32z" fill="#2a3a3f" fill-rule="evenodd"/><path d="m226.86 45.68v1.97h-98.65v-1.97h-4.33v1.97 4.72 2.66h4.33v-2.66h3.45 3.44 28.42 27.41 28.42 4.17 3.34v2.66h4.33v-2.66-4.72-1.97z" fill="#1f1f1f" fill-rule="evenodd"/><path d="m219.48 16h-10.43v31.7h10.43c1.76 0 5-7.09 5-15.83s-3.24-15.87-5-15.87z" fill="#524d87" fill-rule="evenodd"/><path d="m197.48 29.83h8.73v4.06h-8.73z" fill="#524d87"/><path d="m197.48 43.64h8.73v4.06h-8.73z" fill="#524d87"/><path d="m197.48 36.74h8.73v4.06h-8.73z" fill="#524d87"/><path d="m197.48 22.93h8.73v4.06h-8.73z" fill="#524d87"/><path d="m194.64 11.2h2.84v4.82h-2.84z" fill="#524d87"/><path d="m206.21 11.2h2.84v4.82h-2.84z" fill="#524d87"/><path d="m191.34 11.56h-27.61v4.44h-28.14c-1.76 0-5 7.09-5 15.84s3.28 15.83 5 15.83h59v-31.67h-3.3z" fill="#524d87" fill-rule="evenodd"/><path d="m197.48 16.03h8.73v4.06h-8.73z" fill="#524d87"/><path d="m194.64 11.2h2.84v8.89h8.73v-8.89h2.84v36.5h-2.84v-4.06h-8.73v4.06h-2.84zm11.57 29.6v-4.06h-8.73v4.06zm0-6.9v-4.07h-8.73v4.07zm0-6.91v-4.06h-8.73v4.07z" fill="#4f2215" fill-rule="evenodd"/><path d="m157.29 64.9a6.23 6.23 0 1 0 -6.23-6.23 6.24 6.24 0 0 0 6.23 6.23z" fill="#342b28" fill-rule="evenodd"/><path d="m141.37 64.9a6.23 6.23 0 1 0 -6.23-6.23 6.24 6.24 0 0 0 6.23 6.23z" fill="#342b28" fill-rule="evenodd"/><path d="m141.37 61.56a2.9 2.9 0 1 0 -2.9-2.89 2.9 2.9 0 0 0 2.9 2.89z" fill="#f7b82e" fill-rule="evenodd"/><path d="m157.29 61.56a2.9 2.9 0 1 0 -2.89-2.89 2.9 2.9 0 0 0 2.89 2.89z" fill="#f7b82e" fill-rule="evenodd"/><path d="m191.34 16h-55.75c-.73 0-1.73 1.23-2.65 3.31h61.7v-3.31zm17.71 0v3.31h13.08c-.92-2.08-1.92-3.31-2.65-3.31zm-11.57 0v4.06h8.73v-4.06z" fill="#483d8b" fill-rule="evenodd"/><path d="m163.73 11.56h27.61v4.47h-27.61z" fill="#483d8b"/><path d="m213.06 65a6.23 6.23 0 1 0 -6.23-6.23 6.24 6.24 0 0 0 6.23 6.23z" fill="#332c2b" fill-rule="evenodd"/><path d="m213.06 61.63a2.89 2.89 0 1 0 -2.89-2.89 2.9 2.9 0 0 0 2.89 2.89z" fill="#bf822c" fill-rule="evenodd"/><path d="m197.18 65a6.23 6.23 0 1 0 -6.18-6.26 6.24 6.24 0 0 0 6.18 6.26z" fill="#332c2b" fill-rule="evenodd"/><path d="m197.18 61.63a2.89 2.89 0 1 0 -2.89-2.89 2.9 2.9 0 0 0 2.89 2.89z" fill="#bf822c" fill-rule="evenodd"/><path d="m135.1 52.37v1.63h2.07a6.3 6.3 0 1 0 10.53 4.65 5.67 5.67 0 0 0 -.1-1.09h3.4a6.59 6.59 0 0 0 -.1 1.09 6.3 6.3 0 0 0 12.6.16 6.23 6.23 0 1 1 -.49-2.59 6.37 6.37 0 0 0 -1.55-2.22h2.06v-1.63zm6.27.07a6.23 6.23 0 1 1 -6.23 6.23 6.23 6.23 0 0 1 6.23-6.23z" fill="#2b454c" fill-rule="evenodd"/><path d="m177.53 47.7h-41.94a1 1 0 0 1 -.28-.05h-7.1v-2h-4.34v9.35h4.34v-2.63h49.32z" fill="#333" fill-rule="evenodd"/><path d="m132.94 19.34a32.35 32.35 0 0 0 -2.39 12.53c0 8.74 3.28 15.83 5 15.83h41.94v-28.36z" fill="#5f5f82" fill-rule="evenodd"/><path d="m157.29 52.44a6.23 6.23 0 1 1 -6.23 6.23 6.23 6.23 0 0 1 6.23-6.23zm0 3.33a2.9 2.9 0 1 0 2.9 2.9 2.9 2.9 0 0 0 -2.9-2.9z" fill="#342b28" fill-rule="evenodd"/><path d="m141.37 52.44a6.23 6.23 0 1 1 -6.23 6.23 6.23 6.23 0 0 1 6.23-6.23zm0 3.33a2.9 2.9 0 1 0 2.89 2.9 2.9 2.9 0 0 0 -2.89-2.9z" fill="#342b28" fill-rule="evenodd"/><path d="m141.37 55.77a2.9 2.9 0 1 1 -2.9 2.9 2.89 2.89 0 0 1 2.9-2.9z" fill="#bf822c" fill-rule="evenodd"/><path d="m157.29 55.77a2.9 2.9 0 1 1 -2.89 2.9 2.9 2.9 0 0 1 2.89-2.9z" fill="#bf822c" fill-rule="evenodd"/><path d="m177.53 16h-41.94c-.73 0-1.73 1.23-2.65 3.31h44.59z" fill="#534e87" fill-rule="evenodd"/><path d="m163.73 11.56h13.81v4.47h-13.81z" fill="#534e87"/><path d="m141.37 35.43h2.89v12.48h-2.89z" fill="#333"/><path d="m132.94 31.87h2.89v16.04h-2.89z" fill="#333"/><path d="m211.29 35.43h2.89v12.48h-2.89z" fill="#333"/><path d="m219.71 31.87h2.89v16.04h-2.89z" fill="#333"/><path d="m105.39 31.34h-77v-3.27h77zm0 16h-77v-3.25h77v3.26zm14.61-.43v1.9h-3.47v-4.72h-5v-17.65h3.67v-4.18h-96.1v4.18h3.32v17.65h-5.16v4.72h-3.46v-1.9h-3.54v8.56h3.67v-2.31h9.22l1.36 3.06h1a6.66 6.66 0 0 0 13.32 0h1.26l1.23-2.75h3.28l1.22 2.75h1a6.67 6.67 0 0 0 13.33 0h1.26l.83-2.75h3l1.06 2.75h1.8a6.66 6.66 0 1 0 13.32 0h1.64l1.08-2.85h3.37l1.22 2.85h1.53a6.67 6.67 0 0 0 13.33 0h1.41l.72-3.06h14.12v2.31h3.67v-8.56z" fill="#524d87" fill-rule="evenodd"/><path d="m74.59 62.79a6.43 6.43 0 1 0 -6.59-6.42 6.53 6.53 0 0 0 6.59 6.42z" fill="#333" fill-rule="evenodd"/><path d="m97.06 62.79a6.43 6.43 0 1 0 -6.61-6.42 6.53 6.53 0 0 0 6.61 6.42z" fill="#333" fill-rule="evenodd"/><path d="m97.06 58.79a2.43 2.43 0 1 0 -2.49-2.42 2.47 2.47 0 0 0 2.49 2.42z" fill="#bf822c" fill-rule="evenodd"/><path d="m74.59 58.79a2.43 2.43 0 1 0 -2.49-2.42 2.47 2.47 0 0 0 2.49 2.42z" fill="#bf822c" fill-rule="evenodd"/><path d="m53.71 62.79a6.43 6.43 0 1 0 -6.61-6.42 6.53 6.53 0 0 0 6.61 6.42z" fill="#566464" fill-rule="evenodd"/><path d="m53.71 58.79a2.43 2.43 0 1 0 -2.49-2.42 2.47 2.47 0 0 0 2.49 2.42z" fill="#404f8d" fill-rule="evenodd"/><path d="m32.12 62.79a6.43 6.43 0 1 0 -6.61-6.42 6.53 6.53 0 0 0 6.61 6.42z" fill="#566464" fill-rule="evenodd"/><path d="m19.1 22.26h96.08v4.18h-96.08z" fill="#483d8b"/><path d="m13.8 48.81h106.03v4.66h-106.03z" fill="#6f322c"/><path d="m119.82 46.91h3.67v8.57h-3.67z" fill="#d38724"/><path d="m23.15 53.16h18.19l-1.23 3.06h-15.6z" fill="#333" fill-rule="evenodd"/><path d="m44.62 53.16h18.19l-1.23 3.06h-15.6z" fill="#333" fill-rule="evenodd"/><path d="m64.65 53.16h19.89l-1.34 3.06h-17.06z" fill="#bf822c" fill-rule="evenodd"/><path d="m87.12 53.16h19.88l-1.33 3.06h-17.06z" fill="#333" fill-rule="evenodd"/><path d="m68 31.34h-39.58v-3.27h39.58v-1.63h-45.58v17.65h-5.16v4.72h50.74v-1.46h-39.58v-3.26h39.58zm-54.2 24.13h.13v-2h-.13zm24.94.75v.15a6.52 6.52 0 0 1 -6.62 6.42 6.66 6.66 0 0 1 -4.42-1.65 6.66 6.66 0 0 0 11.15-4.92zm1.37 0 1.23-2.75h-.13zm4.51-2.75 1.22 2.75h.16l-1.23-2.75zm2.24 2.75a6.66 6.66 0 0 0 6.67 6.66 6.55 6.55 0 0 0 2.76-.6 6.67 6.67 0 0 1 -2.58.51 6.51 6.51 0 0 1 -6.61-6.42v-.15z" fill="#5f5f82" fill-rule="evenodd"/><path d="m68 56.68c0-.11 0-.21 0-.31v-.15z" fill="#566464" fill-rule="evenodd"/><path d="m60.33 56.22v.15a6.62 6.62 0 0 1 -13.23 0v-.15h4.12v.15a2.5 2.5 0 0 0 5 0s0-.1 0-.15z" fill="#333" fill-rule="evenodd"/><path d="m56.2 56.22v.15a2.5 2.5 0 0 1 -5 0v-.15z" fill="#bf822c" fill-rule="evenodd"/><path d="m38.74 56.22v.15a6.62 6.62 0 0 1 -13.23 0v-.15h4.12v.15a2.5 2.5 0 0 0 5 0s0-.1 0-.15z" fill="#333" fill-rule="evenodd"/><path d="m19.1 22.26h48.89v4.18h-48.89z" fill="#534e87"/><path d="m67.99 53.16h-3.34l.15.31h-2.12l.13-.31h-18.19l.13.31h-3.54l.13-.31h-18.19l.13.31h-9.48v-4.66h54.19z" fill="#6f322c" fill-rule="evenodd"/><path d="m23.15 53.16h18.19l-1.23 3.06h-15.6z" fill="#bf822c" fill-rule="evenodd"/><path d="m44.62 53.16h18.19l-1.23 3.06h-15.6z" fill="#bf822c" fill-rule="evenodd"/><path d="m64.65 53.16h3.34v3.06h-1.85z" fill="#d38724" fill-rule="evenodd"/><path d="m87.12 53.16h19.88l-1.33 3.06h-17.06z" fill="#bf822c" fill-rule="evenodd"/><path d="m233.33 16.41v4.44h3v27.15h89.63v-27.15h3v-4.44zm19.26 24h-8.87v-19.56h8.87v19.52zm16.44 0h-8.87v-19.56h8.84v19.52zm16.44 0h-8.87v-19.56h8.87v19.52zm16.44 0h-8.91v-19.56h8.87v19.52zm16.44 0h-8.87v-19.56h8.87z" fill="#5f5f82" fill-rule="evenodd"/><path d="m233.33 16.41h95.54v4.44h-95.54z" fill="#534e87"/><path d="m328.46 45.51v1.89h-94.71v-1.89h-4.16v9h4.16v-2.58h4.71v1.54h1.38v2h1.27a6.06 6.06 0 1 0 11 0h1.28v-2h1.37v-1.54h1.18v1.54h1.37v2h1.28a6 6 0 1 0 11 0h1.27v-2h1.38v-1.54h17.76v1.54h1.38v2h1.27a6 6 0 1 0 11 0h1.28v-2h1.37v-1.54h1.18v1.54h1.37v2h1.28a6 6 0 1 0 11.52 2.53 5.92 5.92 0 0 0 -.56-2.52h1.28v-2h1.37v-1.55h4.72v2.56h4.16v-9z" fill="#6f322c" fill-rule="evenodd"/><path d="m246.65 64a6 6 0 1 0 -6-6 6 6 0 0 0 6 6z" fill="#422c2a" fill-rule="evenodd"/><path d="m264.09 64a6 6 0 1 0 -6-6 6.05 6.05 0 0 0 6 6z" fill="#422c2a" fill-rule="evenodd"/><path d="m298.2 64a6 6 0 1 0 -6-6 6 6 0 0 0 6 6z" fill="#422c2a" fill-rule="evenodd"/><path d="m315.59 64a6 6 0 1 0 -6-6 6 6 0 0 0 6 6z" fill="#422c2a" fill-rule="evenodd"/><path d="m246.65 60.51a2.53 2.53 0 1 0 -2.53-2.51 2.52 2.52 0 0 0 2.53 2.51z" fill="#bf822c" fill-rule="evenodd"/><path d="m264.09 60.51a2.53 2.53 0 1 0 -2.53-2.51 2.52 2.52 0 0 0 2.53 2.51z" fill="#bf822c" fill-rule="evenodd"/><path d="m298.2 60.51a2.53 2.53 0 1 0 -2.53-2.51 2.52 2.52 0 0 0 2.53 2.51z" fill="#bf822c" fill-rule="evenodd"/><path d="m315.59 60.51a2.53 2.53 0 1 0 -2.53-2.51 2.52 2.52 0 0 0 2.53 2.51z" fill="#bf822c" fill-rule="evenodd"/><path d="m281.1 47.4h44.82v-26.55h-7.57v19.52h-8.87v-19.52h-7.57v19.52h-8.87v-19.52h-7.57v19.52h-4.37z" fill="#524d87" fill-rule="evenodd"/><path d="m281.1 16.41h47.77v4.44h-47.77z" fill="#483d8b"/><path d="m328.46 45.51v1.89h-47.36v4.53h8.9v1.54h1.38v2h1.27a6 6 0 0 0 5.5 8.57 6.36 6.36 0 0 0 1.24-.12 6.56 6.56 0 0 1 -1.18.11 6 6 0 1 1 5.48-8.56h1.23v-2h1.37v-1.54h1.18v1.54h1.37v2h1.27a6 6 0 1 1 1.32 6.9 6.05 6.05 0 0 0 10.22-4.37 5.92 5.92 0 0 0 -.56-2.52h1.28v-2h1.37v-1.55h4.72v2.56h4.16v-9z" fill="#5b2b28" fill-rule="evenodd"/><path d="m298.2 52a6 6 0 1 1 -6 6 6 6 0 0 1 6-6zm0 3.51a2.53 2.53 0 1 0 2.52 2.49 2.53 2.53 0 0 0 -2.52-2.54z" fill="#422c2a" fill-rule="evenodd"/><path d="m315.59 52a6 6 0 1 1 -6 6 6 6 0 0 1 6-6zm0 3.51a2.53 2.53 0 1 0 2.52 2.49 2.53 2.53 0 0 0 -2.52-2.54z" fill="#422c2a" fill-rule="evenodd"/><path d="m298.2 55.46a2.53 2.53 0 1 1 -2.53 2.54 2.52 2.52 0 0 1 2.53-2.54z" fill="#d89335" fill-rule="evenodd"/><path d="m315.59 55.46a2.53 2.53 0 1 1 -2.53 2.54 2.52 2.52 0 0 1 2.53-2.54z" fill="#d89335" fill-rule="evenodd"/><path d="m799 58.16-7.83-9.29h-7.41v-4.87h1.24v-5.27h1.33v-5h-1.33v-6.21h-1.23v-2.4h-6.09l.82-13.83h2.74v-4.29h-13.32v4.29h2.74l.82 13.83h-10v-4.93c0-2.76-2.24-4-5-4s-5 1.27-5 4v4.93h-10.11v-9.36c0-3.65-3-5.65-6.62-5.65s-6.62 2-6.62 5.65v9.36h-14v-12h-37.52v3.22h14v29.19h-3.21v-1.53h-3.4v7.34h3.4v-2.1h3.23v3.55h7.57a9.08 9.08 0 0 0 17.31 0h3.3a9.08 9.08 0 0 0 17.31 0h3.3a9.08 9.08 0 0 0 17.31 0h4.81a4.69 4.69 0 0 0 -.22 1.46 4.88 4.88 0 0 0 9.76 0 5 5 0 0 0 -.22-1.46h1.45a5 5 0 0 0 -.22 1.46 4.88 4.88 0 0 0 9.76 0 4.69 4.69 0 0 0 -.22-1.46h4.69v5.37zm-105.76-30.84v-9h13.17v9z" fill="#5f5f82" fill-rule="evenodd"/><path d="m690.63 52.79h95.76l-.07 5.37h12.68l-7.84-9.29h-100.53z" fill="#bf822c" fill-rule="evenodd"/><path d="m690.63 35.8h94.36v8.18h-94.36z" fill="#524d87"/><path d="m684 43.98h3.4v7.34h-3.4z" fill="#bf822c"/><path d="m770.66 11.29h7.83l-.82 13.83h-6.19z" fill="#724f87" fill-rule="evenodd"/><path d="m767.92 7h13.31v4.29h-13.31z" fill="#583c69"/><path d="m706.79 59.18a8.75 8.75 0 1 0 -9-8.74 8.92 8.92 0 0 0 9 8.74z" fill="#211e1e" fill-rule="evenodd"/><path d="m706.79 53.78a3.34 3.34 0 1 0 -3.46-3.34 3.41 3.41 0 0 0 3.46 3.34z" fill="#bf822c" fill-rule="evenodd"/><path d="m727.47 59.18a8.75 8.75 0 1 0 -9.06-8.74 8.92 8.92 0 0 0 9.06 8.74z" fill="#211e1e" fill-rule="evenodd"/><path d="m727.47 53.78a3.34 3.34 0 1 0 -3.47-3.34 3.41 3.41 0 0 0 3.47 3.34z" fill="#bf822c" fill-rule="evenodd"/><path d="m748.08 59.18a8.75 8.75 0 1 0 -9.08-8.74 8.92 8.92 0 0 0 9.08 8.74z" fill="#211e1e" fill-rule="evenodd"/><path d="m748.08 53.78a3.34 3.34 0 1 0 -3.46-3.34 3.41 3.41 0 0 0 3.46 3.34z" fill="#bf822c" fill-rule="evenodd"/><path d="m766.22 59.11a4.73 4.73 0 1 0 -4.89-4.72 4.82 4.82 0 0 0 4.89 4.72z" fill="#211e1e" fill-rule="evenodd"/><path d="m766.22 56.19a1.81 1.81 0 1 0 -1.87-1.8 1.84 1.84 0 0 0 1.87 1.8z" fill="#bf822c" fill-rule="evenodd"/><path d="m777 59.11a4.73 4.73 0 1 0 -4.9-4.72 4.82 4.82 0 0 0 4.9 4.72z" fill="#211e1e" fill-rule="evenodd"/><path d="m777 56.19a1.81 1.81 0 1 0 -1.88-1.8 1.84 1.84 0 0 0 1.88 1.8z" fill="#bf822c" fill-rule="evenodd"/><path d="m741.37 25.12v-9.36c0-3.65-3-5.65-6.62-5.65s-6.62 2-6.62 5.65v9.36z" fill="#524d87" fill-rule="evenodd"/><path d="m751.54 20.19v4.93h10v-4.93c0-2.76-2.24-4-5-4s-5 1.24-5 4z" fill="#724f87" fill-rule="evenodd"/><path d="m676.61 13.13h37.52v3.22h-37.52z" fill="#583c69"/><path d="m783.76 48.87v-4.87h-29.58a8.71 8.71 0 0 1 2.82 4.87zm-41.76-4.87h-4.16v4.89h1.36a8.69 8.69 0 0 1 2.8-4.89zm43-5.25h1.33v-5h-1.33v-6.23h-1.23v-2.4h-46v10.68h47.23v2.93zm-23.46 14.04a4.69 4.69 0 0 0 -.22 1.46 5.63 5.63 0 0 0 0 .58c0-.15 0-.29 0-.44a4.5 4.5 0 0 1 .29-1.6zm1.8 5.42a4.9 4.9 0 0 0 4.34.69 5.1 5.1 0 0 1 -4.34-.69zm7.66-4.92a4.05 4.05 0 0 0 -.12-.5 4.13 4.13 0 0 1 .15.5zm1.33-.5a5 5 0 0 0 -.22 1.46 4.89 4.89 0 0 0 4.89 4.88 5 5 0 0 0 1-.11 5.12 5.12 0 0 1 -1 .09 4.81 4.81 0 0 1 -4.9-4.72 4.5 4.5 0 0 1 .29-1.6zm14 0v5.37l.07-5.37z" fill="#524d87" fill-rule="evenodd"/><path d="m737.81 52.79h1.55a8.35 8.35 0 0 1 -.34-2.35 8.12 8.12 0 0 1 .15-1.57h-1.36zm19 0h4.82a5 5 0 0 1 9.21 0h1.6a5 5 0 0 1 9.21 0h4.75l-.07 5.37h12.67l-7.83-9.29h-34.17a9 9 0 0 1 .14 1.57 8.34 8.34 0 0 1 -.34 2.35z" fill="#aa7632" fill-rule="evenodd"/><path d="m737.81 35.8h47.19v8.2h-30.82a9.31 9.31 0 0 0 -12.18 0h-4.16z" fill="#483d8b" fill-rule="evenodd"/><path d="m770.66 11.29h7.83l-.82 13.83h-6.19z" fill="#524d87" fill-rule="evenodd"/><path d="m767.92 7h13.31v4.29h-13.31z" fill="#483d8b"/><path d="m748.08 41.7a8.75 8.75 0 1 1 -9.08 8.74 8.9 8.9 0 0 1 9.06-8.74zm0 5.4a3.34 3.34 0 1 0 3.46 3.34 3.4 3.4 0 0 0 -3.46-3.34z" fill="#1a1a1a" fill-rule="evenodd"/><path d="m766.22 49.66a4.73 4.73 0 1 1 -4.89 4.73 4.82 4.82 0 0 1 4.89-4.73zm0 2.92a1.81 1.81 0 1 0 1.87 1.81 1.84 1.84 0 0 0 -1.87-1.81z" fill="#211e1e" fill-rule="evenodd"/><path d="m777 49.66a4.73 4.73 0 1 1 -4.9 4.73 4.81 4.81 0 0 1 4.9-4.73zm0 2.92a1.81 1.81 0 1 0 1.87 1.81 1.84 1.84 0 0 0 -1.87-1.81z" fill="#211e1e" fill-rule="evenodd"/><path d="m741.37 25.12v-9.36a5.27 5.27 0 0 0 -3.56-5.12v14.48z" fill="#524d87" fill-rule="evenodd"/><path d="m751.54 20.19v4.93h10v-4.93c0-2.76-2.24-4-5-4s-5 1.24-5 4z" fill="#524d87" fill-rule="evenodd"/><path d="m676.61 13.13h37.52v3.22h-37.52z" fill="#483d8b"/><path d="m781.04 35.8h5.28v2.93h-5.28z" fill="#483d8b"/></svg>