<svg xmlns="http://www.w3.org/2000/svg" width="398" height="137" viewBox="0 0 398 137"><title>X_</title><g id="Objects"><rect x="93.3" y="18.98" width="189.93" height="17.68" style="fill:#fdf2cd"/><rect x="183.18" y="1.41" width="10.16" height="156.49" rx="5.08" transform="translate(-1.18 156.45) rotate(-45)" style="fill:#fdf2cd"/><rect x="183.18" y="1.41" width="10.16" height="156.49" rx="5.08" transform="translate(265.06 269.1) rotate(-135)" style="fill:#fdf2cd"/><rect x="93.3" y="10.14" width="189.93" height="8.84" style="fill:#764f1f"/><rect x="43.18" y="57.86" width="5.6" height="86.3" rx="2.8" transform="translate(-57.96 62.1) rotate(-45)" style="fill:#fdf2cd"/><rect x="43.18" y="57.86" width="5.6" height="86.3" rx="2.8" transform="translate(7.06 204.95) rotate(-135)" style="fill:#fdf2cd"/><rect x="-1.34" y="58.05" width="94.64" height="17.68" rx="8.84" style="fill:#ea5d4a"/><rect x="348.18" y="58.86" width="5.6" height="86.3" rx="2.8" transform="translate(30.66 278.06) rotate(-45)" style="fill:#fdf2cd"/><rect x="348.18" y="58.86" width="5.6" height="86.3" rx="2.8" transform="translate(527.02 422.33) rotate(-135)" style="fill:#fdf2cd"/><rect x="303.66" y="59.05" width="94.64" height="17.68" rx="8.84" style="fill:#ea5d4a"/></g></svg>