<svg height="128" viewBox="0 0 1356 128" width="1356" xmlns="http://www.w3.org/2000/svg"><g fill="none" stroke="#666" stroke-miterlimit="10"><path d="m-30.5 22.5s68 39 127.5-.5"/><path d="m-38.5 21.5s68 39 127.5-.5"/><path d="m125.5 22.5s68 39 127.5-.5"/><path d="m117.5 21.5s68 39 127.5-.5"/></g><path d="m102.47 32.86h5.01v86.46h-5.01z" fill="#524d87"/><path d="m107.48 32.86h5.01v86.46h-5.01z" fill="#483d8b"/><rect fill="#ffde72" height="5.27" rx="2.64" width="6.01" x="85.95" y="20.32"/><path d="m86.71 25.59h4.51v2h-4.51z" fill="#524d87"/><rect fill="#ffde72" height="5.27" rx="2.64" width="6.01" x="93.96" y="20.32"/><path d="m94.71 25.59h4.51v2h-4.51z" fill="#524d87"/><rect fill="#ffc814" height="5.27" rx="2.64" transform="matrix(-1 0 0 -1 251.99 45.91)" width="6.01" x="122.99" y="20.32"/><path d="m123.74 25.59h4.51v2h-4.51z" fill="#483d8b" transform="matrix(-1 0 0 -1 251.99 53.18)"/><rect fill="#ffc814" height="5.27" rx="2.64" transform="matrix(-1 0 0 -1 235.97 45.91)" width="6.01" x="114.98" y="20.32"/><path d="m115.73 25.59h4.51v2h-4.51z" fill="#483d8b" transform="matrix(-1 0 0 -1 235.97 53.18)"/><path d="m86 27.59a1 1 0 0 0 -1 1v3.27a1 1 0 0 0 1 1h21.53v-5.27z" fill="#565387"/><path d="m129 27.59h-21.52v5.27h21.52a1 1 0 0 0 1-1v-3.27a1 1 0 0 0 -1-1z" fill="#524d87"/><path d="m126.97 32.86-14.49 25.37v-6.06l11.03-19.31z" fill="#565387"/><path d="m87.98 32.86 14.49 25.37v-6.06l-11.03-19.31z" fill="#565387"/><path d="m281.5 21.5s68 39 127.5-.5" fill="none" stroke="#666" stroke-miterlimit="10"/><path d="m273.5 20.5s68 39 127.5-.5" fill="none" stroke="#666" stroke-miterlimit="10"/><path d="m258.47 31.86h5.01v86.46h-5.01z" fill="#524d87"/><path d="m263.48 31.86h5.01v86.46h-5.01z" fill="#483d8b"/><rect fill="#ffde72" height="5.27" rx="2.64" width="6.01" x="241.95" y="19.32"/><path d="m242.71 24.59h4.51v2h-4.51z" fill="#524d87"/><rect fill="#ffde72" height="5.27" rx="2.64" width="6.01" x="249.96" y="19.32"/><path d="m250.71 24.59h4.51v2h-4.51z" fill="#524d87"/><rect fill="#ffc814" height="5.27" rx="2.64" transform="matrix(-1 0 0 -1 563.99 43.91)" width="6.01" x="278.99" y="19.32"/><path d="m279.74 24.59h4.51v2h-4.51z" fill="#483d8b" transform="matrix(-1 0 0 -1 563.99 51.18)"/><rect fill="#ffc814" height="5.27" rx="2.64" transform="matrix(-1 0 0 -1 547.97 43.91)" width="6.01" x="270.98" y="19.32"/><path d="m271.73 24.59h4.51v2h-4.51z" fill="#483d8b" transform="matrix(-1 0 0 -1 547.97 51.18)"/><path d="m242 26.59a1 1 0 0 0 -1 1v3.27a1 1 0 0 0 1 1h21.53v-5.27z" fill="#565387"/><path d="m285 26.59h-21.52v5.27h21.52a1 1 0 0 0 1-1v-3.27a1 1 0 0 0 -1-1z" fill="#524d87"/><path d="m282.97 31.86-14.49 25.37v-6.06l11.03-19.31z" fill="#565387"/><path d="m243.99 31.86 14.48 25.37v-6.06l-11.03-19.31z" fill="#565387"/><path d="m435.5 20.5s68 39 127.5-.5" fill="none" stroke="#666" stroke-miterlimit="10"/><path d="m427.5 19.5s68 39 127.5-.5" fill="none" stroke="#666" stroke-miterlimit="10"/><path d="m412.47 30.86h5.01v86.46h-5.01z" fill="#524d87"/><path d="m417.48 30.86h5.01v86.46h-5.01z" fill="#483d8b"/><rect fill="#ffde72" height="5.27" rx="2.64" width="6.01" x="395.95" y="18.32"/><path d="m396.71 23.59h4.51v2h-4.51z" fill="#524d87"/><rect fill="#ffde72" height="5.27" rx="2.64" width="6.01" x="403.96" y="18.32"/><path d="m404.71 23.59h4.51v2h-4.51z" fill="#524d87"/><rect fill="#ffc814" height="5.27" rx="2.64" transform="matrix(-1 0 0 -1 871.99 41.91)" width="6.01" x="432.99" y="18.32"/><path d="m433.74 23.59h4.51v2h-4.51z" fill="#483d8b" transform="matrix(-1 0 0 -1 871.99 49.18)"/><rect fill="#ffc814" height="5.27" rx="2.64" transform="matrix(-1 0 0 -1 855.97 41.91)" width="6.01" x="424.98" y="18.32"/><path d="m425.73 23.59h4.51v2h-4.51z" fill="#483d8b" transform="matrix(-1 0 0 -1 855.97 49.18)"/><path d="m396 25.59a1 1 0 0 0 -1 1v3.27a1 1 0 0 0 1 1h21.53v-5.27z" fill="#565387"/><path d="m439 25.59h-21.52v5.27h21.52a1 1 0 0 0 1-1v-3.27a1 1 0 0 0 -1-1z" fill="#524d87"/><path d="m436.97 30.86-14.49 25.37v-6.06l11.03-19.31z" fill="#565387"/><path d="m397.99 30.86 14.48 25.37v-6.06l-11.03-19.31z" fill="#565387"/><path d="m591.5 19.5s68 39 127.5-.5" fill="none" stroke="#666" stroke-miterlimit="10"/><path d="m583.5 18.5s68 39 127.5-.5" fill="none" stroke="#666" stroke-miterlimit="10"/><path d="m568.47 29.86h5.01v86.46h-5.01z" fill="#524d87"/><path d="m573.48 29.86h5.01v86.46h-5.01z" fill="#483d8b"/><rect fill="#ffde72" height="5.27" rx="2.64" width="6.01" x="551.95" y="17.32"/><path d="m552.71 22.59h4.51v2h-4.51z" fill="#524d87"/><rect fill="#ffde72" height="5.27" rx="2.64" width="6.01" x="559.96" y="17.32"/><path d="m560.71 22.59h4.51v2h-4.51z" fill="#524d87"/><rect fill="#ffc814" height="5.27" rx="2.64" transform="matrix(-1 0 0 -1 1183.99 39.91)" width="6.01" x="588.99" y="17.32"/><path d="m589.74 22.59h4.51v2h-4.51z" fill="#483d8b" transform="matrix(-1 0 0 -1 1183.99 47.18)"/><rect fill="#ffc814" height="5.27" rx="2.64" transform="matrix(-1 0 0 -1 1167.97 39.91)" width="6.01" x="580.98" y="17.32"/><path d="m581.73 22.59h4.51v2h-4.51z" fill="#483d8b" transform="matrix(-1 0 0 -1 1167.97 47.18)"/><path d="m552 24.59a1 1 0 0 0 -1 1v3.27a1 1 0 0 0 1 1h21.53v-5.27z" fill="#565387"/><path d="m595 24.59h-21.52v5.27h21.52a1 1 0 0 0 1-1v-3.27a1 1 0 0 0 -1-1z" fill="#524d87"/><path d="m592.97 29.86-14.49 25.37v-6.06l11.03-19.31z" fill="#565387"/><path d="m553.99 29.86 14.48 25.37v-6.06l-11.03-19.31z" fill="#565387"/><path d="m745.5 19.5s68 39 127.5-.5" fill="none" stroke="#666" stroke-miterlimit="10"/><path d="m737.5 18.5s68 39 127.5-.5" fill="none" stroke="#666" stroke-miterlimit="10"/><path d="m722.47 29.86h5.01v86.46h-5.01z" fill="#524d87"/><path d="m727.48 29.86h5.01v86.46h-5.01z" fill="#483d8b"/><rect fill="#ffde72" height="5.27" rx="2.64" width="6.01" x="705.95" y="17.32"/><path d="m706.71 22.59h4.51v2h-4.51z" fill="#524d87"/><rect fill="#ffde72" height="5.27" rx="2.64" width="6.01" x="713.96" y="17.32"/><path d="m714.71 22.59h4.51v2h-4.51z" fill="#524d87"/><rect fill="#ffc814" height="5.27" rx="2.64" transform="matrix(-1 0 0 -1 1491.99 39.91)" width="6.01" x="742.99" y="17.32"/><path d="m743.74 22.59h4.51v2h-4.51z" fill="#483d8b" transform="matrix(-1 0 0 -1 1491.99 47.18)"/><rect fill="#ffc814" height="5.27" rx="2.64" transform="matrix(-1 0 0 -1 1475.97 39.91)" width="6.01" x="734.98" y="17.32"/><path d="m735.73 22.59h4.51v2h-4.51z" fill="#483d8b" transform="matrix(-1 0 0 -1 1475.97 47.18)"/><path d="m706 24.59a1 1 0 0 0 -1 1v3.27a1 1 0 0 0 1 1h21.53v-5.27z" fill="#565387"/><path d="m749 24.59h-21.52v5.27h21.52a1 1 0 0 0 1-1v-3.27a1 1 0 0 0 -1-1z" fill="#524d87"/><path d="m746.97 29.86-14.49 25.37v-6.06l11.03-19.31z" fill="#565387"/><path d="m707.99 29.86 14.48 25.37v-6.06l-11.03-19.31z" fill="#565387"/><path d="m901.5 18.5s68 39 127.5-.5" fill="none" stroke="#666" stroke-miterlimit="10"/><path d="m893.5 17.5s68 39 127.5-.5" fill="none" stroke="#666" stroke-miterlimit="10"/><path d="m878.47 28.86h5.01v86.46h-5.01z" fill="#524d87"/><path d="m883.48 28.86h5.01v86.46h-5.01z" fill="#483d8b"/><rect fill="#ffde72" height="5.27" rx="2.64" width="6.01" x="861.95" y="16.32"/><path d="m862.71 21.59h4.51v2h-4.51z" fill="#524d87"/><rect fill="#ffde72" height="5.27" rx="2.64" width="6.01" x="869.96" y="16.32"/><path d="m870.71 21.59h4.51v2h-4.51z" fill="#524d87"/><rect fill="#ffc814" height="5.27" rx="2.64" transform="matrix(-1 0 0 -1 1803.99 37.91)" width="6.01" x="898.99" y="16.32"/><path d="m899.74 21.59h4.51v2h-4.51z" fill="#483d8b" transform="matrix(-1 0 0 -1 1803.99 45.18)"/><rect fill="#ffc814" height="5.27" rx="2.64" transform="matrix(-1 0 0 -1 1787.97 37.91)" width="6.01" x="890.98" y="16.32"/><path d="m891.73 21.59h4.51v2h-4.51z" fill="#483d8b" transform="matrix(-1 0 0 -1 1787.97 45.18)"/><path d="m862 23.59a1 1 0 0 0 -1 1v3.27a1 1 0 0 0 1 1h21.53v-5.27z" fill="#565387"/><path d="m905 23.59h-21.52v5.27h21.52a1 1 0 0 0 1-1v-3.27a1 1 0 0 0 -1-1z" fill="#524d87"/><path d="m902.97 28.86-14.49 25.37v-6.06l11.03-19.31z" fill="#565387"/><path d="m863.99 28.86 14.48 25.37v-6.06l-11.03-19.31z" fill="#565387"/><path d="m1055.5 17.5s68 39 127.5-.5" fill="none" stroke="#666" stroke-miterlimit="10"/><path d="m1047.5 16.5s68 39 127.5-.5" fill="none" stroke="#666" stroke-miterlimit="10"/><path d="m1032.47 27.86h5.01v86.46h-5.01z" fill="#524d87"/><path d="m1037.48 27.86h5.01v86.46h-5.01z" fill="#483d8b"/><rect fill="#ffde72" height="5.27" rx="2.64" width="6.01" x="1015.95" y="15.32"/><path d="m1016.71 20.59h4.51v2h-4.51z" fill="#524d87"/><rect fill="#ffde72" height="5.27" rx="2.64" width="6.01" x="1023.96" y="15.32"/><path d="m1024.71 20.59h4.51v2h-4.51z" fill="#524d87"/><rect fill="#ffc814" height="5.27" rx="2.64" transform="matrix(-1 0 0 -1 2111.99 35.91)" width="6.01" x="1052.99" y="15.32"/><path d="m1053.74 20.59h4.51v2h-4.51z" fill="#483d8b" transform="matrix(-1 0 0 -1 2111.99 43.18)"/><rect fill="#ffc814" height="5.27" rx="2.64" transform="matrix(-1 0 0 -1 2095.97 35.91)" width="6.01" x="1044.98" y="15.32"/><path d="m1045.73 20.59h4.51v2h-4.51z" fill="#483d8b" transform="matrix(-1 0 0 -1 2095.97 43.18)"/><path d="m1016 22.59a1 1 0 0 0 -1 1v3.27a1 1 0 0 0 1 1h21.53v-5.27z" fill="#565387"/><path d="m1059 22.59h-21.52v5.27h21.52a1 1 0 0 0 1-1v-3.27a1 1 0 0 0 -1-1z" fill="#524d87"/><path d="m1056.97 27.86-14.49 25.37v-6.06l11.03-19.31z" fill="#565387"/><path d="m1017.99 27.86 14.48 25.37v-6.06l-11.03-19.31z" fill="#565387"/><path d="m1211.5 16.5s68 39 127.5-.5" fill="none" stroke="#666" stroke-miterlimit="10"/><path d="m1203.5 15.5s68 39 127.5-.5" fill="none" stroke="#666" stroke-miterlimit="10"/><path d="m1188.47 26.86h5.01v86.46h-5.01z" fill="#524d87"/><path d="m1193.48 26.86h5.01v86.46h-5.01z" fill="#483d8b"/><rect fill="#ffde72" height="5.27" rx="2.64" width="6.01" x="1171.95" y="14.32"/><path d="m1172.71 19.59h4.51v2h-4.51z" fill="#524d87"/><rect fill="#ffde72" height="5.27" rx="2.64" width="6.01" x="1179.96" y="14.32"/><path d="m1180.71 19.59h4.51v2h-4.51z" fill="#524d87"/><rect fill="#ffc814" height="5.27" rx="2.64" transform="matrix(-1 0 0 -1 2423.99 33.91)" width="6.01" x="1208.99" y="14.32"/><path d="m1209.74 19.59h4.51v2h-4.51z" fill="#483d8b" transform="matrix(-1 0 0 -1 2423.99 41.18)"/><rect fill="#ffc814" height="5.27" rx="2.64" transform="matrix(-1 0 0 -1 2407.97 33.91)" width="6.01" x="1200.98" y="14.32"/><path d="m1201.73 19.59h4.51v2h-4.51z" fill="#483d8b" transform="matrix(-1 0 0 -1 2407.97 41.18)"/><path d="m1172 21.59a1 1 0 0 0 -1 1v3.27a1 1 0 0 0 1 1h21.53v-5.27z" fill="#565387"/><path d="m1215 21.59h-21.52v5.27h21.52a1 1 0 0 0 1-1v-3.27a1 1 0 0 0 -1-1z" fill="#524d87"/><path d="m1212.97 26.86-14.49 25.37v-6.06l11.03-19.31z" fill="#565387"/><path d="m1173.98 26.86 14.49 25.37v-6.06l-11.03-19.31z" fill="#565387"/></svg>