<svg height="1080" viewBox="0 0 1920 1080" width="1920" xmlns="http://www.w3.org/2000/svg"><rect fill="#b3b3b3" height="1083" rx="12" width="1920" y="-3"/><path d="m91.5 178.5h14v40h-14z" fill="#1b1464"/><path d="m75.5 205.5h30v13h-30z" fill="#8c6239"/><path d="m116.5 179.5h14v39h-14z" fill="#1b1464"/><path d="m116.5 205.5h29v13h-29z" fill="#8c6239"/><path d="m130.5 137.5v44h-39v-45c-21 8.53-21 28-21 28l-15-3c7-35 36-42 36-42h35l5 1s28.6 6 35.5 41l-14.79 3s-1-18.47-21.71-27" fill="#fff"/><circle cx="61" cy="169" fill="#f9d0a7" r="9.5"/><circle cx="161" cy="169" fill="#f9d0a7" r="9.5"/><path d="m105.99 119.5 4.51 10h5l6-10z" fill="#006837"/><path d="m110.5 129.5-3 41 5.59 7.34a.53.53 0 0 0 .88 0l4.53-7.38-3-41z" fill="#009245"/><path d="m105.5 119.5 4.42 8.07a.8.8 0 0 1 -1.17.91l-15.7-9z" fill="#e6e6e6"/><path d="m116.07 127.48 4.93-8h9.5l-14 8.42a.32.32 0 0 1 -.43-.42z" fill="#e6e6e6"/><ellipse cx="111.61" cy="90.14" fill="#f9d0a7" rx="32.39" ry="32.14"/><circle cx="80.95" cy="96.78" fill="#f9d0a7" r="6.45"/><path d="m130 109.23c0 2.63-3.36 4.77-7.5 4.77s-7.5-2.14-7.5-4.77 3.86-1.23 8-1.23 7-1.41 7 1.23z" fill="#fff"/><path d="m143.36 85.31c-.5-5.47-1.35-6.86-2.26-11.77a1.09 1.09 0 0 0 -.58-.78l-22.76-11.61a1 1 0 0 0 -.63-.11l-22.37 2.81h-10.3a1.09 1.09 0 0 0 -.81 1.81 1.08 1.08 0 0 1 -.24 1.64c-2 1.21-5.73 4.39-3.93 10.72a1.17 1.17 0 0 0 .09.24c.44.8-.73 4.45.47 17.23a1.37 1.37 0 0 0 2.71.15c2.11-10.18 9.64-21.75 14.07-25.73a1.06 1.06 0 0 1 .92-.23l39.75 5.43a1.08 1.08 0 0 1 .51.26c.54.51 1.72 5.17 2.76 10.3a1.31 1.31 0 0 0 2.6-.36z" fill="#1a1a1a"/><path d="m112.59 80.82c-2.59-.17-22.91-3.74-28.59-13.82 0 0 6-17 23-20 0 0 10.46-1.7 23.2 7.7.37.28 5.86 6.35 6.12 6.73 1.92 2.73 6.2 9.82 11.94 11.87a.3.3 0 0 1 -.06.58c-5 .54-21 2-29.24-.84l9.36 5.22a.2.2 0 0 1 -.1.38c-4.14-.39-20.88-2-23.17-3.79l7.6 5.79a.1.1 0 0 1 -.06.18z" fill="#333"/><rect fill="#fff" height="16" rx="8" width="20" x="123" y="81"/><rect fill="#fff" height="16" rx="8" width="20" x="98" y="81"/><circle cx="111.5" cy="88.5" r="1.5" stroke="#000" stroke-miterlimit="10" stroke-width="2"/><circle cx="135.5" cy="88.5" r="1.5" stroke="#000" stroke-miterlimit="10" stroke-width="2"/><path d="m649 145h14v40h-14z" fill="#1b1464" transform="matrix(.84301613 .53788828 -.53788828 .84301613 191.7 -326.92)"/><path d="m615 158h30v13h-30z" fill="#8c6239" transform="matrix(.84301613 .53788828 -.53788828 .84301613 187.35 -313.01)"/><path d="m666.7 166.43h14v39h-14z" fill="#1b1464" transform="matrix(.84 .54 -.54 .84 208.97 -336.06)"/><path d="m645.94 199.23h29v14.72h-29z" fill="#8c6239" transform="matrix(-.5430279 .83971465 -.83971465 -.5430279 1192.57 -235.78)"/><path d="m712 136-22 38-35-20 12-20 8-15c-6 11-1 2-1 2v-1a1 1 0 0 0 1-1l2-3 3-4 30 9h23s11 0 27-1v15s-13 2-33.5 1.5" fill="#fff"/><circle cx="765.5" cy="127.5" fill="#f9d0a7" r="9.5"/><path d="m694 117.63.14 10.97 4.58 2 11.28-9.6z" fill="#006837"/><path d="m694.14 128.6-19.14 36.4 2.19 9a.53.53 0 0 0 .79.39l7.1-5 13.65-38.78z" fill="#009245"/><path d="m693.55 117.44.83 9.16a.8.8 0 0 1 -1.44.37l-10.8-14.51z" fill="#e6e6e6"/><path d="m700.05 129 10-8h9l-18.72 8.56a.32.32 0 0 1 -.28-.56z" fill="#e6e6e6"/><ellipse cx="707.61" cy="89.14" fill="#f9d0a7" rx="32.39" ry="32.14"/><circle cx="676.95" cy="95.78" fill="#f9d0a7" r="6.45"/><path d="m726 108.23c0 2.63-3.36 4.77-7.5 4.77s-7.5-2.14-7.5-4.77 3.86-1.23 8-1.23 7-1.41 7 1.23z" fill="#fff"/><path d="m739.36 84.31c-.5-5.47-1.35-6.86-2.26-11.77a1.09 1.09 0 0 0 -.58-.78l-22.76-11.61a1 1 0 0 0 -.63-.11l-22.37 2.81h-10.3a1.09 1.09 0 0 0 -.81 1.81 1.08 1.08 0 0 1 -.24 1.64c-2 1.21-5.73 4.39-3.93 10.72a1.17 1.17 0 0 0 .09.24c.44.8-.73 4.45.47 17.23a1.37 1.37 0 0 0 2.71.15c2.11-10.18 9.64-21.75 14.07-25.73a1.06 1.06 0 0 1 .92-.23l39.75 5.43a1.08 1.08 0 0 1 .51.26c.54.51 1.72 5.17 2.76 10.3a1.31 1.31 0 0 0 2.6-.36z" fill="#1a1a1a"/><path d="m708.59 79.82c-2.59-.17-22.91-3.74-28.59-13.82 0 0 6-17 23-20 0 0 10.46-1.7 23.2 7.7.37.28 5.86 6.35 6.12 6.73 1.92 2.73 6.2 9.82 11.94 11.87a.3.3 0 0 1 -.06.58c-5 .54-21 2-29.24-.84l9.36 5.22a.2.2 0 0 1 -.1.38c-4.14-.39-20.88-2-23.17-3.79l7.6 5.79a.1.1 0 0 1 -.06.18z" fill="#333"/><rect fill="#fff" height="16" rx="8" width="20" x="719" y="80"/><rect fill="#fff" height="16" rx="8" width="20" x="694" y="80"/><circle cx="707.5" cy="87.5" r="1.5" stroke="#000" stroke-miterlimit="10" stroke-width="2"/><circle cx="731.5" cy="87.5" r="1.5" stroke="#000" stroke-miterlimit="10" stroke-width="2"/><path d="m829 168h29v13h-29z" fill="#8c6239" transform="matrix(.8660254 .5 -.5 .8660254 200.26 -398.37)"/><path d="m844.93 155h14v40h-14z" fill="#1b1464" transform="matrix(.86637426 .49939528 -.49939528 .86637426 201.23 -402.07)"/><path d="m821.53 194.04h30v13.62h-30z" fill="#8c6239" transform="matrix(.5 -.8660254 .8660254 .5 244.32 824.88)"/><path d="m874.31 200.89-33.31-19.89 6-11 21.59 12.8 13.1-22.69 12.12 7z" fill="#1b1464"/><path d="m911.45 137.34-22.77 37.66-33.37-20.2 17.69-33.8h-6a341.54 341.54 0 0 0 -36 0l1-12c26-1 34 0 34 0h12l35 12 4 2 3 2a16.65 16.65 0 0 0 -5 6l-2 4s0 1-1.55 2.34" fill="#fff"/><circle cx="825.5" cy="115.5" fill="#f9d0a7" r="9.5"/><path d="m892.86 116.05-.5 10.96 4.46 2.26 9.88-6.21z" fill="#006837"/><path d="m892.36 127-21.21 35.21 1.66 9.08a.54.54 0 0 0 .77.43l7.42-4.52 15.86-37.93z" fill="#009245"/><path d="m892.43 115.83.29 9.19a.79.79 0 0 1 -1.45.29l-9.95-15.11z" fill="#e6e6e6"/><path d="m898.25 127.73 8-4.89 10.75.16-18.56 5.32a.32.32 0 0 1 -.19-.59z" fill="#e6e6e6"/><ellipse cx="908.61" cy="91.14" fill="#f9d0a7" rx="32.39" ry="32.14"/><circle cx="877.95" cy="97.78" fill="#f9d0a7" r="6.45"/><path d="m927 110.23c0 2.63-3.36 4.77-7.5 4.77s-7.5-2.14-7.5-4.77 3.86-1.23 8-1.23 7-1.41 7 1.23z" fill="#fff"/><path d="m940.36 86.31c-.5-5.47-1.35-6.86-2.26-11.77a1.09 1.09 0 0 0 -.58-.78l-22.76-11.61a1 1 0 0 0 -.63-.11l-22.37 2.81h-10.3a1.09 1.09 0 0 0 -.81 1.81 1.08 1.08 0 0 1 -.24 1.64c-2 1.21-5.73 4.39-3.93 10.72a1.17 1.17 0 0 0 .09.24c.44.8-.73 4.45.47 17.23a1.37 1.37 0 0 0 2.71.15c2.11-10.18 9.64-21.75 14.07-25.73a1.06 1.06 0 0 1 .92-.23l39.75 5.43a1.08 1.08 0 0 1 .51.26c.54.51 1.72 5.17 2.76 10.3a1.31 1.31 0 0 0 2.6-.36z" fill="#1a1a1a"/><path d="m909.59 81.82c-2.59-.17-22.91-3.74-28.59-13.82 0 0 6-17 23-20 0 0 10.46-1.7 23.2 7.7.37.28 5.86 6.35 6.12 6.73 1.92 2.73 6.2 9.82 11.94 11.87a.3.3 0 0 1 -.06.58c-5 .54-21 2-29.24-.84l9.36 5.22a.2.2 0 0 1 -.1.38c-4.14-.39-20.88-2-23.17-3.79l7.6 5.79a.1.1 0 0 1 -.06.18z" fill="#333"/><rect fill="#fff" height="16" rx="8" width="20" x="920" y="82"/><rect fill="#fff" height="16" rx="8" width="20" x="895" y="82"/><circle cx="908.5" cy="89.5" r="1.5" stroke="#000" stroke-miterlimit="10" stroke-width="2"/><circle cx="932.5" cy="89.5" r="1.5" stroke="#000" stroke-miterlimit="10" stroke-width="2"/><path d="m1045.37 202.8h29v13.87h-29z" fill="#8c6239" transform="matrix(.53317162 -.84600711 .84600711 .53317162 317.38 994.6)"/><path d="m1044.93 155h14v40h-14z" fill="#1b1464" transform="matrix(.86637426 .49939528 -.49939528 .86637426 227.96 -501.95)"/><path d="m1021.69 193.95h30v13.99h-30z" fill="#8c6239" transform="matrix(.5 -.8660254 .8660254 .5 344.32 998.27)"/><path d="m1074.31 200.89-2.31 3.11-12-8 8.59-13.2 13.1-22.69 12.12 7z" fill="#1b1464"/><path d="m1111.45 137.34-22.77 37.66-33.37-20.19 17.69-33.81h-6a341.54 341.54 0 0 0 -36 0l1-12c26-1 34 0 34 0h12l35 12 4 2 3 2a16.65 16.65 0 0 0 -5 6l-2 4s0 1-1.55 2.34" fill="#fff"/><circle cx="1025.5" cy="115.5" fill="#f9d0a7" r="9.5"/><path d="m1092.86 116.05-.5 10.96 4.46 2.26 9.88-6.21z" fill="#006837"/><path d="m1092.36 127-21.21 35.21 1.66 9.08a.54.54 0 0 0 .77.43l7.38-4.53 15.86-37.93z" fill="#009245"/><path d="m1092.43 115.83.29 9.19a.79.79 0 0 1 -1.45.29l-10-15.11z" fill="#e6e6e6"/><path d="m1098.25 127.73 8-4.89 10.75.16-18.56 5.32a.32.32 0 0 1 -.19-.59z" fill="#e6e6e6"/><ellipse cx="1108.61" cy="91.14" fill="#f9d0a7" rx="32.39" ry="32.14"/><circle cx="1077.95" cy="97.78" fill="#f9d0a7" r="6.45"/><path d="m1127 110.23c0 2.63-3.36 4.77-7.5 4.77s-7.5-2.14-7.5-4.77 3.86-1.23 8-1.23 7-1.41 7 1.23z" fill="#fff"/><path d="m1140.36 86.31c-.5-5.47-1.35-6.86-2.26-11.77a1.09 1.09 0 0 0 -.58-.78l-22.76-11.61a1 1 0 0 0 -.63-.11l-22.37 2.81h-10.3a1.09 1.09 0 0 0 -.81 1.81 1.08 1.08 0 0 1 -.24 1.64c-2 1.21-5.73 4.39-3.93 10.72a1.17 1.17 0 0 0 .09.24c.44.8-.73 4.45.47 17.23a1.37 1.37 0 0 0 2.71.15c2.11-10.18 9.64-21.75 14.07-25.73a1.06 1.06 0 0 1 .92-.23l39.75 5.43a1.08 1.08 0 0 1 .51.26c.54.51 1.72 5.17 2.76 10.3a1.31 1.31 0 0 0 2.6-.36z" fill="#1a1a1a"/><path d="m1109.59 81.82c-2.59-.17-22.91-3.74-28.59-13.82 0 0 6-17 23-20 0 0 10.46-1.7 23.2 7.7.37.28 5.86 6.35 6.12 6.73 1.92 2.73 6.2 9.82 11.94 11.87a.3.3 0 0 1 -.06.58c-5 .54-21 2-29.24-.84l9.36 5.22a.2.2 0 0 1 -.1.38c-4.14-.39-20.88-2-23.17-3.79l7.6 5.79a.1.1 0 0 1 -.06.18z" fill="#333"/><rect fill="#fff" height="16" rx="8" width="20" x="1120" y="82"/><rect fill="#fff" height="16" rx="8" width="20" x="1095" y="82"/><circle cx="1108.5" cy="89.5" r="1.5" stroke="#000" stroke-miterlimit="10" stroke-width="2"/><circle cx="1132.5" cy="89.5" r="1.5" stroke="#000" stroke-miterlimit="10" stroke-width="2"/><path d="m1146.1 400.8h29v13.87h-29z" fill="#8c6239" transform="matrix(-.53 -.85 .85 -.53 1434.39 1607.01)"/><path d="m1161.53 353h14v40h-14z" fill="#1b1464" transform="matrix(-.87 .5 -.5 -.87 2367.19 112.59)"/><path d="m1168.78 391.95h30v13.99h-30z" fill="#8c6239" transform="matrix(-.5 -.8660254 .8660254 -.5 1430.17 1623.6)"/><path d="m1146.15 398.89 2.31 3.11 12-8-8.58-13.2-13.1-22.69-12.13 7z" fill="#1b1464"/><path d="m1109 335.34 22.79 37.66 33.37-20.19-17.7-33.8h6a341.54 341.54 0 0 1 36 0l-1-12c-26-1-34 0-34 0h-12l-35 12-4 2-3 2a16.65 16.65 0 0 1 5 6l2 4s0 1 1.56 2.34" fill="#fff"/><circle cx="1194.96" cy="313.5" fill="#f9d0a7" r="9.5"/><path d="m1127.6 314.05.5 10.96-4.46 2.26-9.87-6.21z" fill="#006837"/><path d="m1128.1 325 21.22 35.21-1.67 9.08a.53.53 0 0 1 -.76.43l-7.38-4.53-15.87-37.93z" fill="#009245"/><path d="m1128 313.83-.3 9.19a.8.8 0 0 0 1.46.29l9.94-15.11z" fill="#e6e6e6"/><path d="m1122.22 325.73-8-4.89-10.75.16 18.56 5.32a.32.32 0 0 0 .19-.59z" fill="#e6e6e6"/><ellipse cx="1111.86" cy="289.14" fill="#f9d0a7" rx="32.39" ry="32.14"/><circle cx="1142.52" cy="295.78" fill="#f9d0a7" r="6.45"/><path d="m1093.46 308.23c0 2.63 3.36 4.77 7.5 4.77s7.5-2.14 7.5-4.77-3.85-1.23-8-1.23-7-1.41-7 1.23z" fill="#fff"/><path d="m1080.1 284.31c.51-5.47 1.36-6.86 2.27-11.77a1.07 1.07 0 0 1 .57-.78l22.76-11.61a1.07 1.07 0 0 1 .63-.11l22.37 2.81h10.3a1.09 1.09 0 0 1 .82 1.81 1.08 1.08 0 0 0 .23 1.64c2 1.21 5.74 4.39 3.94 10.72a1.22 1.22 0 0 1 -.1.24c-.43.8.73 4.45-.47 17.23a1.37 1.37 0 0 1 -2.7.15c-2.11-10.18-9.64-21.75-14.07-25.73a1.07 1.07 0 0 0 -.93-.23l-39.72 5.44a1.11 1.11 0 0 0 -.52.26c-.53.51-1.71 5.17-2.76 10.3a1.31 1.31 0 0 1 -2.62-.37z" fill="#1a1a1a"/><path d="m1110.88 279.82c2.59-.17 22.9-3.74 28.58-13.82 0 0-6-17-23-20 0 0-10.46-1.7-23.2 7.7-.37.28-5.85 6.35-6.12 6.73-1.91 2.73-6.19 9.82-11.94 11.87a.3.3 0 0 0 .07.58c5 .54 21 2 29.23-.84l-9.36 5.22a.2.2 0 0 0 .1.38c4.14-.39 20.88-2 23.18-3.79l-7.61 5.79a.1.1 0 0 0 .07.18z" fill="#333"/><rect fill="#fff" height="16" rx="8" transform="matrix(-1 0 0 -1 2180.93 576)" width="20" x="1080.46" y="280"/><rect fill="#fff" height="16" rx="8" transform="matrix(-1 0 0 -1 2230.93 576)" width="20" x="1105.46" y="280"/><circle cx="1111.96" cy="287.5" r="1.5" stroke="#000" stroke-miterlimit="10" stroke-width="2"/><circle cx="1087.96" cy="287.5" r="1.5" stroke="#000" stroke-miterlimit="10" stroke-width="2"/><path d="m487.5 178.5h14v40h-14z" fill="#1b1464"/><path d="m487 206h30v13h-30z" fill="#8c6239"/><path d="m512.5 179.5h14v39h-14z" fill="#1b1464"/><path d="m512.5 205.5h29v13h-29z" fill="#8c6239"/><path d="m526.5 137.5v44h-39v-45c-6.5 17.5 2.5 41.5 2.5 41.5l-15 5c-18-56 12.5-63.5 12.5-63.5h35l5 1 3.5.5s1 38 20 42l-9 10s-18-1-15.5-35.5" fill="#fff"/><circle cx="483.5" cy="182.5" fill="#f9d0a7" r="9.5"/><circle cx="551.5" cy="172.5" fill="#f9d0a7" r="9.5"/><path d="m501.99 119.5 4.51 10h5l6-10z" fill="#006837"/><path d="m506.5 129.5-3 41 5.59 7.34a.53.53 0 0 0 .88 0l4.53-7.38-3-41z" fill="#009245"/><path d="m501.5 119.5 4.42 8.07a.8.8 0 0 1 -1.17.91l-15.7-9z" fill="#e6e6e6"/><path d="m512.07 127.48 4.93-8h9.5l-14 8.42a.32.32 0 0 1 -.43-.42z" fill="#e6e6e6"/><ellipse cx="507.61" cy="90.14" fill="#f9d0a7" rx="32.39" ry="32.14"/><circle cx="476.95" cy="96.78" fill="#f9d0a7" r="6.45"/><path d="m526 109.23c0 2.63-3.36 4.77-7.5 4.77s-7.5-2.14-7.5-4.77 3.86-1.23 8-1.23 7-1.41 7 1.23z" fill="#fff"/><path d="m539.36 85.31c-.5-5.47-1.35-6.86-2.26-11.77a1.09 1.09 0 0 0 -.58-.78l-22.76-11.61a1 1 0 0 0 -.63-.11l-22.37 2.81h-10.3a1.09 1.09 0 0 0 -.81 1.81 1.08 1.08 0 0 1 -.24 1.64c-2 1.21-5.73 4.39-3.93 10.72a1.17 1.17 0 0 0 .09.24c.44.8-.73 4.45.47 17.23a1.37 1.37 0 0 0 2.71.15c2.11-10.18 9.64-21.75 14.07-25.73a1.06 1.06 0 0 1 .92-.23l39.75 5.43a1.08 1.08 0 0 1 .51.26c.54.51 1.72 5.17 2.76 10.3a1.31 1.31 0 0 0 2.6-.36z" fill="#1a1a1a"/><path d="m508.59 80.82c-2.59-.17-22.91-3.74-28.59-13.82 0 0 6-17 23-20 0 0 10.46-1.7 23.2 7.7.37.28 5.86 6.35 6.12 6.73 1.92 2.73 6.2 9.82 11.94 11.87a.3.3 0 0 1 -.06.58c-5 .54-21 2-29.24-.84l9.36 5.22a.2.2 0 0 1 -.1.38c-4.14-.39-20.88-2-23.17-3.79l7.6 5.79a.1.1 0 0 1 -.06.18z" fill="#333"/><rect fill="#fff" height="16" rx="8" width="20" x="519" y="81"/><rect fill="#fff" height="16" rx="8" width="20" x="494" y="81"/><circle cx="507.5" cy="88.5" r="1.5" stroke="#000" stroke-miterlimit="10" stroke-width="2"/><circle cx="531.5" cy="88.5" r="1.5" stroke="#000" stroke-miterlimit="10" stroke-width="2"/><path d="m281 202v-14h11v-10l21 3v21z" fill="#1b1464"/><path d="m260.5 196.5h30v13h-30z" fill="#8c6239" transform="matrix(0 -1 1 0 72.5 478.5)"/><path d="m353 179v14h-46v-15z" fill="#1b1464"/><path d="m339 172h29v13h-29z" fill="#8c6239" transform="matrix(0 -1 1 0 175 532)"/><path d="m331 134-.5 46.5h-39v-45c-8.5-14.5-38.5-.5-38.5-.5l-6-12c27-18 46-6 46-6l2 1h1l30.5.5 5 1s22.5 8.5 40.5-6.5l8 12s-28.79 20-49.5 11.5" fill="#fff"/><circle cx="244.5" cy="131.5" fill="#f9d0a7" r="9.5"/><circle cx="378.5" cy="116.5" fill="#f9d0a7" r="9.5"/><path d="m305.99 118.5 4.51 10h5l6-10z" fill="#006837"/><path d="m310.5 128.5-3 41 5.59 7.34a.53.53 0 0 0 .88 0l4.53-7.38-3-41z" fill="#009245"/><path d="m305.5 118.5 4.42 8.07a.8.8 0 0 1 -1.17.91l-13.75-9.48z" fill="#e6e6e6"/><path d="m316.07 126.48 4.93-8 8 .5-12.49 7.92a.32.32 0 0 1 -.44-.42z" fill="#e6e6e6"/><ellipse cx="311.61" cy="89.14" fill="#f9d0a7" rx="32.39" ry="32.14"/><circle cx="280.95" cy="95.78" fill="#f9d0a7" r="6.45"/><path d="m330 108.23c0 2.63-3.36 4.77-7.5 4.77s-7.5-2.14-7.5-4.77 3.86-1.23 8-1.23 7-1.41 7 1.23z" fill="#fff"/><path d="m343.36 84.31c-.5-5.47-1.35-6.86-2.26-11.77a1.09 1.09 0 0 0 -.58-.78l-22.76-11.61a1 1 0 0 0 -.63-.11l-22.37 2.81h-10.3a1.09 1.09 0 0 0 -.81 1.81 1.08 1.08 0 0 1 -.24 1.64c-2 1.21-5.73 4.39-3.93 10.72a1.17 1.17 0 0 0 .09.24c.44.8-.73 4.45.47 17.23a1.37 1.37 0 0 0 2.71.15c2.11-10.18 9.64-21.75 14.07-25.73a1.06 1.06 0 0 1 .92-.23l39.75 5.43a1.08 1.08 0 0 1 .51.26c.54.51 1.72 5.17 2.76 10.3a1.31 1.31 0 0 0 2.6-.36z" fill="#1a1a1a"/><path d="m312.59 79.82c-2.59-.17-22.91-3.74-28.59-13.82 0 0 6-17 23-20 0 0 10.46-1.7 23.2 7.7.37.28 5.86 6.35 6.12 6.73 1.92 2.73 6.2 9.82 11.94 11.87a.3.3 0 0 1 -.06.58c-5 .54-21 2-29.24-.84l9.36 5.22a.2.2 0 0 1 -.1.38c-4.14-.39-20.88-2-23.17-3.79l7.6 5.79a.1.1 0 0 1 -.06.18z" fill="#333"/><rect fill="#fff" height="16" rx="8" width="20" x="323" y="80"/><rect fill="#fff" height="16" rx="8" width="20" x="298" y="80"/><circle cx="311.5" cy="87.5" r="1.5" stroke="#000" stroke-miterlimit="10" stroke-width="2"/><circle cx="335.5" cy="87.5" r="1.5" stroke="#000" stroke-miterlimit="10" stroke-width="2"/><path d="m1269.04 196.19-.49-13.99 45.45-.2 1 13z" fill="#1b1464"/><path d="m1260.01 174.47h30v13h-30z" fill="#8c6239" transform="matrix(.03507392 .99938472 -.99938472 .03507392 1411.06 -1099.61)"/><path d="m1359.49 179.22.92 13.97-45.41 1.81-4-13z" fill="#1b1464"/><path d="m1338.47 172.65h29v13h-29z" fill="#8c6239" transform="matrix(-.06557729 -.99784749 .99784749 -.06557729 1263 1540.96)"/><path d="m1331.5 137.5v44h-39v-45c-17.5-20.5-43.5-12.5-43.5-12.5l-5-13a44.49 44.49 0 0 1 48.5 8.5l31.5.5h8s11-15 46-10l-6 14s-23-2-40.5 13.5" fill="#fff"/><circle cx="1241.5" cy="119.5" fill="#f9d0a7" r="9.5"/><circle cx="1381.5" cy="118.5" fill="#f9d0a7" r="9.5"/><path d="m1306.99 119.5 4.51 10h5l6-10z" fill="#006837"/><path d="m1311.5 129.5-3 41 5.59 7.34a.53.53 0 0 0 .88 0l4.53-7.38-3-41z" fill="#009245"/><path d="m1306.5 119.5 4.42 8.07a.8.8 0 0 1 -1.17.91l-15.7-9z" fill="#e6e6e6"/><path d="m1317.07 127.48 4.93-8h9.5l-14 8.42a.32.32 0 0 1 -.43-.42z" fill="#e6e6e6"/><ellipse cx="1312.61" cy="90.14" fill="#f9d0a7" rx="32.39" ry="32.14"/><circle cx="1281.95" cy="96.78" fill="#f9d0a7" r="6.45"/><path d="m1331 109.23c0 2.63-3.36 4.77-7.5 4.77s-7.5-2.14-7.5-4.77 3.86-1.23 8-1.23 7-1.41 7 1.23z" fill="#fff"/><path d="m1344.36 85.31c-.5-5.47-1.35-6.86-2.26-11.77a1.09 1.09 0 0 0 -.58-.78l-22.76-11.61a1 1 0 0 0 -.63-.11l-22.37 2.81h-10.3a1.09 1.09 0 0 0 -.81 1.81 1.08 1.08 0 0 1 -.24 1.64c-2 1.21-5.73 4.39-3.93 10.72a1.17 1.17 0 0 0 .09.24c.44.8-.73 4.45.47 17.23a1.37 1.37 0 0 0 2.71.15c2.11-10.18 9.64-21.75 14.07-25.73a1.06 1.06 0 0 1 .92-.23l39.75 5.43a1.08 1.08 0 0 1 .51.26c.54.51 1.72 5.17 2.76 10.3a1.31 1.31 0 0 0 2.6-.36z" fill="#1a1a1a"/><path d="m1313.59 80.82c-2.59-.17-22.91-3.74-28.59-13.82 0 0 6-17 23-20 0 0 10.46-1.7 23.2 7.7.37.28 5.86 6.35 6.12 6.73 1.92 2.73 6.2 9.82 11.94 11.87a.3.3 0 0 1 -.06.58c-5 .54-21 2-29.24-.84l9.36 5.22a.2.2 0 0 1 -.1.38c-4.14-.39-20.88-2-23.17-3.79l7.6 5.79a.1.1 0 0 1 -.06.18z" fill="#333"/><rect fill="#fff" height="16" rx="8" width="20" x="1324" y="81"/><rect fill="#fff" height="16" rx="8" width="20" x="1299" y="81"/><circle cx="1312.5" cy="88.5" r="1.5" stroke="#000" stroke-miterlimit="10" stroke-width="2"/><circle cx="1336.5" cy="88.5" r="1.5" stroke="#000" stroke-miterlimit="10" stroke-width="2"/><path d="m1462.59 190.52-.08-14 45.44 1.15.61 13.02z" fill="#1b1464"/><path d="m1454 168.99h30v13h-30z" fill="#8c6239" transform="matrix(.00558502 .9999844 -.9999844 .00558502 1636.38 -1294.47)"/><path d="m1554.49 177.22.92 13.97-48.41-.19-1-13z" fill="#1b1464"/><path d="m1533.47 170.65h29v13h-29z" fill="#8c6239" transform="matrix(-.06557729 -.99784749 .99784749 -.06557729 1472.79 1733.41)"/><path d="m1526.5 135.5v44h-39v-45c-17.5-20.5-43.5-12.5-43.5-12.5l-5-13a44.49 44.49 0 0 1 48.5 8.5l31.5.5h8s11-15 46-10l-6 14s-23-2-40.5 13.5" fill="#fff"/><circle cx="1436.5" cy="117.5" fill="#f9d0a7" r="9.5"/><circle cx="1576.5" cy="116.5" fill="#f9d0a7" r="9.5"/><path d="m1501.99 117.5 4.51 10h5l6-10z" fill="#006837"/><path d="m1506.5 127.5-3 41 5.59 7.34a.53.53 0 0 0 .88 0l4.53-7.38-3-41z" fill="#009245"/><path d="m1501.5 117.5 4.42 8.07a.8.8 0 0 1 -1.17.91l-15.7-9z" fill="#e6e6e6"/><path d="m1512.07 125.48 4.93-8h9.5l-14 8.42a.32.32 0 0 1 -.43-.42z" fill="#e6e6e6"/><ellipse cx="1507.61" cy="88.14" fill="#f9d0a7" rx="32.39" ry="32.14"/><circle cx="1476.95" cy="94.78" fill="#f9d0a7" r="6.45"/><path d="m1526 107.23c0 2.63-3.36 4.77-7.5 4.77s-7.5-2.14-7.5-4.77 3.86-1.23 8-1.23 7-1.41 7 1.23z" fill="#fff"/><path d="m1539.36 83.31c-.5-5.47-1.35-6.86-2.26-11.77a1.09 1.09 0 0 0 -.58-.78l-22.76-11.61a1 1 0 0 0 -.63-.11l-22.37 2.81h-10.3a1.09 1.09 0 0 0 -.81 1.81 1.08 1.08 0 0 1 -.24 1.64c-2 1.21-5.73 4.39-3.93 10.72a1.17 1.17 0 0 0 .09.24c.44.8-.73 4.45.47 17.23a1.37 1.37 0 0 0 2.71.15c2.11-10.18 9.64-21.75 14.07-25.73a1.06 1.06 0 0 1 .92-.23l39.75 5.43a1.08 1.08 0 0 1 .51.26c.54.51 1.72 5.17 2.76 10.3a1.31 1.31 0 0 0 2.6-.36z" fill="#1a1a1a"/><path d="m1508.59 78.82c-2.59-.17-22.91-3.74-28.59-13.82 0 0 6-17 23-20 0 0 10.46-1.7 23.2 7.7.37.28 5.86 6.35 6.12 6.73 1.92 2.73 6.2 9.82 11.94 11.87a.3.3 0 0 1 -.06.58c-5 .54-21 2-29.24-.84l9.36 5.22a.2.2 0 0 1 -.1.38c-4.14-.39-20.88-2-23.17-3.79l7.6 5.79a.1.1 0 0 1 -.06.18z" fill="#333"/><rect fill="#fff" height="16" rx="8" width="20" x="1519" y="79"/><rect fill="#fff" height="16" rx="8" width="20" x="1494" y="79"/><circle cx="1507.5" cy="86.5" r="1.5" stroke="#000" stroke-miterlimit="10" stroke-width="2"/><circle cx="1531.5" cy="86.5" r="1.5" stroke="#000" stroke-miterlimit="10" stroke-width="2"/><path d="m1691.5 180.5h14v40h-14z" fill="#1b1464"/><path d="m1675.5 207.5h30v13h-30z" fill="#8c6239"/><path d="m1716.5 181.5h14v39h-14z" fill="#1b1464"/><path d="m1716.5 207.5h29v13h-29z" fill="#8c6239"/><path d="m1730.5 139.5v44h-39v-45c-37.5-23.5-35.5-47.5-35.5-47.5h12c9 17 23.5 30.5 23.5 30.5l27.5.5 12.5.5a63.92 63.92 0 0 0 23.5-31.5l12 2s-13 42-36.5 46.5" fill="#fff"/><circle cx="1661.5" cy="85.5" fill="#f9d0a7" r="9.5"/><circle cx="1761.5" cy="85.5" fill="#f9d0a7" r="9.5"/><path d="m1705.99 121.5 4.51 10h5l6-10z" fill="#006837"/><path d="m1710.5 131.5-3 41 5.59 7.34a.53.53 0 0 0 .88 0l4.53-7.38-3-41z" fill="#009245"/><path d="m1705.5 121.5 4.42 8.07a.8.8 0 0 1 -1.17.91l-15.7-9z" fill="#e6e6e6"/><path d="m1716.07 129.48 4.93-8h9.5l-14 8.42a.32.32 0 0 1 -.43-.42z" fill="#e6e6e6"/><ellipse cx="1711.61" cy="92.14" fill="#f9d0a7" rx="32.39" ry="32.14"/><circle cx="1680.95" cy="98.78" fill="#f9d0a7" r="6.45"/><path d="m1729 111.23c0 2.63-2.36 4.77-6.5 4.77s-6.5-2.14-6.5-4.77 2.86-5.23 7-5.23 6 2.59 6 5.23z" fill="#fff"/><path d="m1743.36 87.31c-.5-5.47-1.35-6.86-2.26-11.77a1.09 1.09 0 0 0 -.58-.78l-22.76-11.61a1 1 0 0 0 -.63-.11l-22.37 2.81h-10.3a1.09 1.09 0 0 0 -.81 1.81 1.08 1.08 0 0 1 -.24 1.64c-2 1.21-5.73 4.39-3.93 10.72a1.17 1.17 0 0 0 .09.24c.44.8-.73 4.45.47 17.23a1.37 1.37 0 0 0 2.71.15c2.11-10.18 9.64-21.75 14.07-25.73a1.06 1.06 0 0 1 .92-.23l39.75 5.43a1.08 1.08 0 0 1 .51.26c.54.51 1.72 5.17 2.76 10.3a1.31 1.31 0 0 0 2.6-.36z" fill="#1a1a1a"/><path d="m1712.59 82.82c-2.59-.17-22.91-3.74-28.59-13.82 0 0 6-17 23-20 0 0 10.46-1.7 23.2 7.7.37.28 5.86 6.35 6.12 6.73 1.92 2.73 6.2 9.82 11.94 11.87a.3.3 0 0 1 -.06.58c-5 .54-21 2-29.24-.84l9.36 5.22a.2.2 0 0 1 -.1.38c-4.14-.39-20.88-2-23.17-3.79l7.6 5.79a.1.1 0 0 1 -.06.18z" fill="#333"/><g stroke="#000" stroke-miterlimit="10" stroke-width="2"><rect fill="#f9d0a7" height="16" rx="8" width="20" x="1723" y="83"/><rect fill="#f9d0a7" height="16" rx="8" width="20" x="1698" y="83"/><path d="m1698.5 91.5 18.5-.5"/><path d="m1724 91.5h18"/></g><path d="m116.5 377.5h14v40h-14z" fill="#1b1464" transform="matrix(-1 0 0 -1 247 795)"/><path d="m116.5 404.5h30v13h-30z" fill="#8c6239" transform="matrix(-1 0 0 -1 263 822)"/><path d="m91.5 378.5h14v39h-14z" fill="#1b1464" transform="matrix(-1 0 0 -1 197 796)"/><path d="m76.5 404.5h29v13h-29z" fill="#8c6239" transform="matrix(-1 0 0 -1 182 822)"/><path d="m91.5 336.5v44h39v-45c21 8.53 21 28 21 28l15-3c-7-35-36-42-36-42h-35l-5 1s-28.6 6-35.5 41l14.79 3s1-18.47 21.71-27" fill="#fff"/><circle cx="161" cy="368" fill="#f9d0a7" r="9.5"/><circle cx="61" cy="368" fill="#f9d0a7" r="9.5"/><path d="m116.01 318.5-4.51 10h-5l-6-10z" fill="#006837"/><path d="m111.5 328.5 3 41-5.59 7.34a.53.53 0 0 1 -.88 0l-4.53-7.38 3-41z" fill="#009245"/><path d="m116.5 318.5-4.42 8.07a.8.8 0 0 0 1.17.91l15.7-9z" fill="#e6e6e6"/><path d="m105.93 326.48-4.93-8h-9.5l14 8.42a.32.32 0 0 0 .43-.42z" fill="#e6e6e6"/><ellipse cx="110.39" cy="289.14" fill="#f9d0a7" rx="32.39" ry="32.14"/><circle cx="141.05" cy="295.78" fill="#f9d0a7" r="6.45"/><path d="m92 308.23c0 2.63 3.36 4.77 7.5 4.77s7.5-2.14 7.5-4.77-3.86-1.23-8-1.23-7-1.41-7 1.23z" fill="#fff"/><path d="m78.64 284.31c.5-5.47 1.35-6.86 2.26-11.77a1.09 1.09 0 0 1 .58-.78l22.76-11.61a1 1 0 0 1 .63-.11l22.37 2.81h10.3a1.09 1.09 0 0 1 .81 1.81 1.08 1.08 0 0 0 .24 1.64c2 1.21 5.73 4.39 3.93 10.72a1.17 1.17 0 0 1 -.09.24c-.44.8.73 4.45-.47 17.23a1.37 1.37 0 0 1 -2.71.15c-2.11-10.18-9.64-21.75-14.07-25.73a1.06 1.06 0 0 0 -.92-.23l-39.75 5.43a1.08 1.08 0 0 0 -.51.26c-.54.51-1.72 5.17-2.76 10.3a1.31 1.31 0 0 1 -2.6-.36z" fill="#1a1a1a"/><path d="m109.41 279.82c2.59-.17 22.91-3.74 28.59-13.82 0 0-6-17-23-20 0 0-10.46-1.7-23.2 7.7-.37.28-5.86 6.35-6.12 6.73-1.92 2.73-6.2 9.82-11.94 11.87a.3.3 0 0 0 .06.58c5 .54 21 2 29.24-.84l-9.36 5.22a.2.2 0 0 0 .1.38c4.14-.39 20.88-2 23.17-3.79l-7.6 5.79a.1.1 0 0 0 .06.18z" fill="#333"/><rect fill="#fff" height="16" rx="8" transform="matrix(-1 0 0 -1 178 576)" width="20" x="79" y="280"/><rect fill="#fff" height="16" rx="8" transform="matrix(-1 0 0 -1 228 576)" width="20" x="104" y="280"/><circle cx="110.5" cy="287.5" r="1.5" stroke="#000" stroke-miterlimit="10" stroke-width="2"/><circle cx="86.5" cy="287.5" r="1.5" stroke="#000" stroke-miterlimit="10" stroke-width="2"/><path d="m758.86 345h14v40h-14z" fill="#1b1464" transform="matrix(-.84301613 .53788828 -.53788828 -.84301613 1607.83 260.81)"/><path d="m776.86 358h30v13h-30z" fill="#8c6239" transform="matrix(-.84301613 .53788828 -.53788828 -.84301613 1655.48 245.91)"/><path d="m741.16 366.43h14v39h-14z" fill="#1b1464" transform="matrix(-.83971465 .5430279 -.5430279 -.83971465 1585.96 303.69)"/><path d="m746.92 399.23h29v14.72h-29z" fill="#8c6239" transform="matrix(.5430279 .83971465 -.83971465 .5430279 689.34 -453.57)"/><path d="m709.86 336 22 38 35-20-12-20-8-15c6 11 1 2 1 2v-1a1 1 0 0 1 -1-1l-2-3-3-4-30 9h-23s-11 0-27-1v15s13 2 33.5 1.5" fill="#fff"/><circle cx="656.36" cy="327.5" fill="#f9d0a7" r="9.5"/><path d="m727.86 317.63-.14 10.97-4.58 2-11.28-9.6z" fill="#006837"/><path d="m727.72 328.6 19.15 36.4-2.19 9a.53.53 0 0 1 -.79.39l-7.11-4.95-13.64-38.84z" fill="#009245"/><path d="m728.31 317.44-.83 9.16a.8.8 0 0 0 1.43.37l10.81-14.51z" fill="#e6e6e6"/><path d="m721.81 329-9.95-8h-9l18.72 8.56a.32.32 0 0 0 .23-.56z" fill="#e6e6e6"/><ellipse cx="714.25" cy="289.14" fill="#f9d0a7" rx="32.39" ry="32.14"/><circle cx="744.91" cy="295.78" fill="#f9d0a7" r="6.45"/><path d="m695.86 308.23c0 2.63 3.36 4.77 7.5 4.77s7.5-2.14 7.5-4.77-3.86-1.23-8-1.23-7-1.41-7 1.23z" fill="#fff"/><path d="m682.49 284.31c.51-5.47 1.36-6.86 2.27-11.77a1.09 1.09 0 0 1 .58-.78l22.76-11.61a1 1 0 0 1 .63-.11l22.37 2.81h10.3a1.09 1.09 0 0 1 .81 1.81 1.09 1.09 0 0 0 .23 1.64c2 1.21 5.74 4.39 3.94 10.72a1.17 1.17 0 0 1 -.09.24c-.44.8.72 4.45-.47 17.23a1.37 1.37 0 0 1 -2.71.15c-2.11-10.17-9.64-21.74-14.11-25.72a1.07 1.07 0 0 0 -.93-.23l-39.74 5.43a1.08 1.08 0 0 0 -.51.26c-.54.51-1.72 5.17-2.77 10.3a1.31 1.31 0 0 1 -2.56-.37z" fill="#1a1a1a"/><path d="m713.27 279.82c2.59-.17 22.9-3.74 28.59-13.82 0 0-6-17-23-20 0 0-10.46-1.7-23.2 7.7-.37.28-5.86 6.35-6.12 6.73-1.92 2.73-6.2 9.82-11.94 11.87a.3.3 0 0 0 .06.58c5 .54 21 2 29.23-.84l-9.35 5.22a.2.2 0 0 0 .1.38c4.13-.39 20.88-2 23.17-3.79l-7.6 5.79a.1.1 0 0 0 .06.18z" fill="#333"/><rect fill="#fff" height="16" rx="8" transform="matrix(-1 0 0 -1 1385.72 576)" width="20" x="682.86" y="280"/><rect fill="#fff" height="16" rx="8" transform="matrix(-1 0 0 -1 1435.72 576)" width="20" x="707.86" y="280"/><circle cx="714.36" cy="287.5" r="1.5" stroke="#000" stroke-miterlimit="10" stroke-width="2"/><circle cx="690.36" cy="287.5" r="1.5" stroke="#000" stroke-miterlimit="10" stroke-width="2"/><path d="m962.46 366h29v13h-29z" fill="#8c6239" transform="matrix(-.8660254 .5 -.5 -.8660254 2009.29 206.61)"/><path d="m961.53 353h14v40h-14z" fill="#1b1464" transform="matrix(-.86637426 .49939528 -.49939528 -.86637426 1993.92 212.47)"/><path d="m968.94 392.04h30v13.62h-30z" fill="#8c6239" transform="matrix(-.5 -.8660254 .8660254 -.5 1130.49 1450.39)"/><path d="m946.15 398.89 33.32-19.89-6-11-21.59 12.8-13.1-22.69-12.13 7z" fill="#1b1464"/><path d="m909 335.34 22.79 37.66 33.37-20.19-17.7-33.81h6a341.54 341.54 0 0 1 36 0l-1-12c-26-1-34 0-34 0h-12l-35 12-4 2-3 2a16.65 16.65 0 0 1 5 6l2 4s0 1 1.56 2.34" fill="#fff"/><circle cx="994.96" cy="313.5" fill="#f9d0a7" r="9.5"/><path d="m927.6 314.05.5 10.96-4.46 2.26-9.87-6.21z" fill="#006837"/><path d="m928.1 325 21.22 35.21-1.67 9.08a.53.53 0 0 1 -.76.43l-7.38-4.53-15.87-37.93z" fill="#009245"/><path d="m928 313.83-.3 9.19a.8.8 0 0 0 1.46.29l9.94-15.11z" fill="#e6e6e6"/><path d="m922.22 325.73-8-4.89-10.75.16 18.53 5.32a.32.32 0 0 0 .22-.59z" fill="#e6e6e6"/><ellipse cx="911.86" cy="289.14" fill="#f9d0a7" rx="32.39" ry="32.14"/><circle cx="942.52" cy="295.78" fill="#f9d0a7" r="6.45"/><path d="m893.46 308.23c0 2.63 3.36 4.77 7.5 4.77s7.5-2.14 7.5-4.77-3.85-1.23-8-1.23-7-1.41-7 1.23z" fill="#fff"/><path d="m880.1 284.31c.51-5.47 1.36-6.86 2.27-11.77a1.07 1.07 0 0 1 .57-.78l22.76-11.61a1.07 1.07 0 0 1 .63-.11l22.37 2.81h10.3a1.09 1.09 0 0 1 .82 1.81 1.08 1.08 0 0 0 .23 1.64c2 1.21 5.74 4.39 3.94 10.72a1.22 1.22 0 0 1 -.1.24c-.43.8.73 4.45-.47 17.23a1.37 1.37 0 0 1 -2.7.15c-2.11-10.18-9.64-21.75-14.07-25.73a1.07 1.07 0 0 0 -.93-.23l-39.72 5.44a1.11 1.11 0 0 0 -.52.26c-.53.51-1.71 5.17-2.76 10.3a1.31 1.31 0 0 1 -2.62-.37z" fill="#1a1a1a"/><path d="m910.88 279.82c2.59-.17 22.9-3.74 28.58-13.82 0 0-6-17-23-20 0 0-10.46-1.7-23.2 7.7-.37.28-5.85 6.35-6.12 6.73-1.91 2.73-6.19 9.82-11.94 11.87a.3.3 0 0 0 .07.58c5 .54 21 2 29.23-.84l-9.36 5.22a.2.2 0 0 0 .1.38c4.14-.39 20.88-2 23.18-3.79l-7.61 5.79a.1.1 0 0 0 .07.18z" fill="#333"/><rect fill="#fff" height="16" rx="8" transform="matrix(-1 0 0 -1 1780.93 576)" width="20" x="880.46" y="280"/><rect fill="#fff" height="16" rx="8" transform="matrix(-1 0 0 -1 1830.93 576)" width="20" x="905.46" y="280"/><circle cx="911.96" cy="287.5" r="1.5" stroke="#000" stroke-miterlimit="10" stroke-width="2"/><circle cx="887.96" cy="287.5" r="1.5" stroke="#000" stroke-miterlimit="10" stroke-width="2"/><path d="m520.82 377.5h14v40h-14z" fill="#1b1464" transform="matrix(-1 0 0 -1 1055.63 795)"/><path d="m505.32 405h30v13h-30z" fill="#8c6239" transform="matrix(-1 0 0 -1 1040.63 823)"/><path d="m495.82 378.5h14v39h-14z" fill="#1b1464" transform="matrix(-1 0 0 -1 1005.63 796)"/><path d="m480.82 404.5h29v13h-29z" fill="#8c6239" transform="matrix(-1 0 0 -1 990.63 822)"/><path d="m495.82 336.5v44h39v-45c6.5 17.5-2.5 41.5-2.5 41.5l15 5c18-56-12.5-63.5-12.5-63.5h-35l-5 1-3.5.5s-1 38-20 42l9 10s18-1 15.5-35.5" fill="#fff"/><circle cx="538.82" cy="381.5" fill="#f9d0a7" r="9.5"/><circle cx="470.82" cy="371.5" fill="#f9d0a7" r="9.5"/><path d="m520.33 318.5-4.51 10h-5.01l-6-10z" fill="#006837"/><path d="m515.82 328.5 3 41-5.59 7.34a.53.53 0 0 1 -.88 0l-4.53-7.38 3-41z" fill="#009245"/><path d="m520.82 318.5-4.42 8.07a.79.79 0 0 0 1.16.91l15.71-9z" fill="#e6e6e6"/><path d="m510.24 326.48-4.92-8h-9.5l14 8.42a.32.32 0 0 0 .42-.42z" fill="#e6e6e6"/><ellipse cx="514.71" cy="289.14" fill="#f9d0a7" rx="32.39" ry="32.14"/><circle cx="545.37" cy="295.78" fill="#f9d0a7" r="6.45"/><path d="m496.32 308.23c0 2.63 3.35 4.77 7.5 4.77s7.5-2.14 7.5-4.77-3.86-1.23-8-1.23-7-1.41-7 1.23z" fill="#fff"/><path d="m483 284.31c.51-5.47 1.36-6.86 2.27-11.77a1.07 1.07 0 0 1 .57-.78l22.76-11.61a1.07 1.07 0 0 1 .63-.11l22.37 2.81h10.3a1.09 1.09 0 0 1 .82 1.81 1.08 1.08 0 0 0 .23 1.64c2 1.21 5.74 4.39 3.94 10.72a1.22 1.22 0 0 1 -.1.24c-.43.8.73 4.45-.47 17.23a1.37 1.37 0 0 1 -2.7.15c-2.11-10.18-9.64-21.75-14.07-25.73a1.07 1.07 0 0 0 -.93-.23l-39.74 5.43a1.08 1.08 0 0 0 -.51.26c-.54.51-1.72 5.17-2.77 10.3a1.31 1.31 0 0 1 -2.6-.36z" fill="#1a1a1a"/><path d="m513.73 279.82c2.59-.17 22.9-3.74 28.59-13.82 0 0-6-17-23-20 0 0-10.47-1.7-23.21 7.7-.37.28-5.85 6.35-6.12 6.73-1.91 2.73-6.19 9.82-11.93 11.87a.3.3 0 0 0 .06.58c5 .54 21 2 29.23-.84l-9.35 5.22a.2.2 0 0 0 .11.38c4.13-.39 20.88-2 23.17-3.79l-7.61 5.79a.1.1 0 0 0 .06.18z" fill="#333"/><rect fill="#fff" height="16" rx="8" transform="matrix(-1 0 0 -1 986.63 576)" width="20" x="483.32" y="280"/><rect fill="#fff" height="16" rx="8" transform="matrix(-1 0 0 -1 1036.63 576)" width="20" x="508.32" y="280"/><circle cx="514.82" cy="287.5" r="1.5" stroke="#000" stroke-miterlimit="10" stroke-width="2"/><circle cx="490.82" cy="287.5" r="1.5" stroke="#000" stroke-miterlimit="10" stroke-width="2"/><path d="m342 401v-14h-11v-10l-21 3v21z" fill="#1b1464"/><path d="m332.5 395.5h30v13h-30z" fill="#8c6239" transform="matrix(0 -1 1 0 -54.5 749.5)"/><path d="m270 378v14h46v-15z" fill="#1b1464"/><path d="m255 371h29v13h-29z" fill="#8c6239" transform="matrix(0 -1 1 0 -108 647)"/><path d="m292 333 .5 46.5h39v-45c8.5-14.5 38.5-.5 38.5-.5l6-12c-27-18-46-6-46-6l-2 1h-1l-30.5.5-5 1s-22.5 8.5-40.5-6.5l-8 12s28.79 20 49.5 11.5" fill="#fff"/><circle cx="378.5" cy="330.5" fill="#f9d0a7" r="9.5"/><circle cx="244.5" cy="315.5" fill="#f9d0a7" r="9.5"/><path d="m317.01 317.5-4.51 10h-5l-6-10z" fill="#006837"/><path d="m312.5 327.5 3 41-5.59 7.34a.53.53 0 0 1 -.88 0l-4.53-7.38 3-41z" fill="#009245"/><path d="m317.5 317.5-4.42 8.07a.8.8 0 0 0 1.17.91l13.75-9.48z" fill="#e6e6e6"/><path d="m306.93 325.48-4.93-8-8 .5 12.49 7.92a.32.32 0 0 0 .44-.42z" fill="#e6e6e6"/><ellipse cx="311.39" cy="288.14" fill="#f9d0a7" rx="32.39" ry="32.14"/><circle cx="342.05" cy="294.78" fill="#f9d0a7" r="6.45"/><path d="m293 307.23c0 2.63 3.36 4.77 7.5 4.77s7.5-2.14 7.5-4.77-3.86-1.23-8-1.23-7-1.41-7 1.23z" fill="#fff"/><path d="m279.64 283.31c.5-5.47 1.35-6.86 2.26-11.77a1.09 1.09 0 0 1 .58-.78l22.76-11.61a1 1 0 0 1 .63-.11l22.37 2.81h10.3a1.09 1.09 0 0 1 .81 1.81 1.08 1.08 0 0 0 .24 1.64c2 1.21 5.73 4.39 3.93 10.72a1.17 1.17 0 0 1 -.09.24c-.44.8.73 4.45-.47 17.23a1.37 1.37 0 0 1 -2.71.15c-2.11-10.18-9.64-21.75-14.07-25.73a1.06 1.06 0 0 0 -.92-.23l-39.75 5.43a1.08 1.08 0 0 0 -.51.26c-.54.51-1.72 5.17-2.76 10.3a1.31 1.31 0 0 1 -2.6-.36z" fill="#1a1a1a"/><path d="m310.41 278.82c2.59-.17 22.91-3.74 28.59-13.82 0 0-6-17-23-20 0 0-10.46-1.7-23.2 7.7-.37.28-5.86 6.35-6.12 6.73-1.92 2.73-6.2 9.82-11.94 11.87a.3.3 0 0 0 .06.58c5 .54 21 2 29.24-.84l-9.36 5.22a.2.2 0 0 0 .1.38c4.14-.39 20.88-2 23.17-3.79l-7.6 5.79a.1.1 0 0 0 .06.18z" fill="#333"/><rect fill="#fff" height="16" rx="8" transform="matrix(-1 0 0 -1 580 574)" width="20" x="280" y="279"/><rect fill="#fff" height="16" rx="8" transform="matrix(-1 0 0 -1 630 574)" width="20" x="305" y="279"/><circle cx="311.5" cy="286.5" r="1.5" stroke="#000" stroke-miterlimit="10" stroke-width="2"/><circle cx="287.5" cy="286.5" r="1.5" stroke="#000" stroke-miterlimit="10" stroke-width="2"/><path d="m1353.96 395.19.49-13.99-45.45-.2-1 13z" fill="#1b1464"/><path d="m1332.99 373.47h30v13h-30z" fill="#8c6239" transform="matrix(-.03507392 .99938472 -.99938472 -.03507392 1775.11 -953.83)"/><path d="m1263.51 378.22-.92 13.97 45.41 1.81 4-13z" fill="#1b1464"/><path d="m1255.53 371.65h29v13h-29z" fill="#8c6239" transform="matrix(.06557729 -.99784749 .99784749 .06557729 809.35 1620.62)"/><path d="m1291.5 336.5v44h39v-45c17.5-20.5 43.5-12.5 43.5-12.5l5-13a44.49 44.49 0 0 0 -48.5 8.5l-31.5.5h-8s-11-15-46-10l6 14s23-2 40.5 13.5" fill="#fff"/><circle cx="1381.5" cy="318.5" fill="#f9d0a7" r="9.5"/><circle cx="1241.5" cy="317.5" fill="#f9d0a7" r="9.5"/><path d="m1316.01 318.5-4.51 10h-5l-6-10z" fill="#006837"/><path d="m1311.5 328.5 3 41-5.59 7.34a.53.53 0 0 1 -.88 0l-4.53-7.38 3-41z" fill="#009245"/><path d="m1316.5 318.5-4.42 8.07a.8.8 0 0 0 1.17.91l15.7-9z" fill="#e6e6e6"/><path d="m1305.93 326.48-4.93-8h-9.5l14 8.42a.32.32 0 0 0 .43-.42z" fill="#e6e6e6"/><ellipse cx="1310.39" cy="289.14" fill="#f9d0a7" rx="32.39" ry="32.14"/><circle cx="1341.05" cy="295.78" fill="#f9d0a7" r="6.45"/><path d="m1292 308.23c0 2.63 3.36 4.77 7.5 4.77s7.5-2.14 7.5-4.77-3.86-1.23-8-1.23-7-1.41-7 1.23z" fill="#fff"/><path d="m1278.64 284.31c.5-5.47 1.35-6.86 2.26-11.77a1.09 1.09 0 0 1 .58-.78l22.76-11.61a1 1 0 0 1 .63-.11l22.37 2.81h10.3a1.09 1.09 0 0 1 .81 1.81 1.08 1.08 0 0 0 .24 1.64c2 1.21 5.73 4.39 3.93 10.72a1.17 1.17 0 0 1 -.09.24c-.44.8.73 4.45-.47 17.23a1.37 1.37 0 0 1 -2.71.15c-2.11-10.18-9.64-21.75-14.07-25.73a1.06 1.06 0 0 0 -.92-.23l-39.75 5.43a1.08 1.08 0 0 0 -.51.26c-.54.51-1.72 5.17-2.76 10.3a1.31 1.31 0 0 1 -2.6-.36z" fill="#1a1a1a"/><path d="m1309.41 279.82c2.59-.17 22.91-3.74 28.59-13.82 0 0-6-17-23-20 0 0-10.46-1.7-23.2 7.7-.37.28-5.86 6.35-6.12 6.73-1.92 2.73-6.2 9.82-11.94 11.87a.3.3 0 0 0 .06.58c5 .54 21 2 29.24-.84l-9.36 5.22a.2.2 0 0 0 .1.38c4.14-.39 20.88-2 23.17-3.79l-7.6 5.79a.1.1 0 0 0 .06.18z" fill="#333"/><rect fill="#fff" height="16" rx="8" transform="matrix(-1 0 0 -1 2578 576)" width="20" x="1279" y="280"/><rect fill="#fff" height="16" rx="8" transform="matrix(-1 0 0 -1 2628 576)" width="20" x="1304" y="280"/><circle cx="1310.5" cy="287.5" r="1.5" stroke="#000" stroke-miterlimit="10" stroke-width="2"/><circle cx="1286.5" cy="287.5" r="1.5" stroke="#000" stroke-miterlimit="10" stroke-width="2"/><path d="m1554.41 391.52.08-14-45.44 1.15-.61 13.02z" fill="#1b1464"/><path d="m1533 369.99h30v13h-30z" fill="#8c6239" transform="matrix(-.00558502 .9999844 -.9999844 -.00558502 1933.02 -1169.41)"/><path d="m1462.51 378.22-.92 13.97 48.41-.19 1-13z" fill="#1b1464"/><path d="m1454.53 371.65h29v13h-29z" fill="#8c6239" transform="matrix(.06557729 -.99784749 .99784749 .06557729 995.3 1819.19)"/><path d="m1490.5 336.5v44h39v-45c17.5-20.5 43.5-12.5 43.5-12.5l5-13a44.49 44.49 0 0 0 -48.5 8.5l-31.5.5h-8s-11-15-46-10l6 14s23-2 40.5 13.5" fill="#fff"/><circle cx="1580.5" cy="318.5" fill="#f9d0a7" r="9.5"/><circle cx="1440.5" cy="317.5" fill="#f9d0a7" r="9.5"/><path d="m1515.01 318.5-4.51 10h-5l-6-10z" fill="#006837"/><path d="m1510.5 328.5 3 41-5.59 7.34a.53.53 0 0 1 -.88 0l-4.53-7.38 3-41z" fill="#009245"/><path d="m1515.5 318.5-4.42 8.07a.8.8 0 0 0 1.17.91l15.7-9z" fill="#e6e6e6"/><path d="m1504.93 326.48-4.93-8h-9.5l14 8.42a.32.32 0 0 0 .43-.42z" fill="#e6e6e6"/><ellipse cx="1509.39" cy="289.14" fill="#f9d0a7" rx="32.39" ry="32.14"/><circle cx="1540.05" cy="295.78" fill="#f9d0a7" r="6.45"/><path d="m1491 308.23c0 2.63 3.36 4.77 7.5 4.77s7.5-2.14 7.5-4.77-3.86-1.23-8-1.23-7-1.41-7 1.23z" fill="#fff"/><path d="m1477.64 284.31c.5-5.47 1.35-6.86 2.26-11.77a1.09 1.09 0 0 1 .58-.78l22.76-11.61a1 1 0 0 1 .63-.11l22.37 2.81h10.3a1.09 1.09 0 0 1 .81 1.81 1.08 1.08 0 0 0 .24 1.64c2 1.21 5.73 4.39 3.93 10.72a1.17 1.17 0 0 1 -.09.24c-.44.8.73 4.45-.47 17.23a1.37 1.37 0 0 1 -2.71.15c-2.11-10.18-9.64-21.75-14.07-25.73a1.06 1.06 0 0 0 -.92-.23l-39.75 5.43a1.08 1.08 0 0 0 -.51.26c-.54.51-1.72 5.17-2.76 10.3a1.31 1.31 0 0 1 -2.6-.36z" fill="#1a1a1a"/><path d="m1508.41 279.82c2.59-.17 22.91-3.74 28.59-13.82 0 0-6-17-23-20 0 0-10.46-1.7-23.2 7.7-.37.28-5.86 6.35-6.12 6.73-1.92 2.73-6.2 9.82-11.94 11.87a.3.3 0 0 0 .06.58c5 .54 21 2 29.24-.84l-9.36 5.22a.2.2 0 0 0 .1.38c4.14-.39 20.88-2 23.17-3.79l-7.6 5.79a.1.1 0 0 0 .06.18z" fill="#333"/><rect fill="#fff" height="16" rx="8" transform="matrix(-1 0 0 -1 2976 576)" width="20" x="1478" y="280"/><rect fill="#fff" height="16" rx="8" transform="matrix(-1 0 0 -1 3026 576)" width="20" x="1503" y="280"/><circle cx="1509.5" cy="287.5" r="1.5" stroke="#000" stroke-miterlimit="10" stroke-width="2"/><circle cx="1485.5" cy="287.5" r="1.5" stroke="#000" stroke-miterlimit="10" stroke-width="2"/><path d="m1716.5 378.5h14v40h-14z" fill="#1b1464" transform="matrix(-1 0 0 -1 3447 797)"/><path d="m1716.5 405.5h30v13h-30z" fill="#8c6239" transform="matrix(-1 0 0 -1 3463 824)"/><path d="m1691.5 379.5h14v39h-14z" fill="#1b1464" transform="matrix(-1 0 0 -1 3397 798)"/><path d="m1676.5 405.5h29v13h-29z" fill="#8c6239" transform="matrix(-1 0 0 -1 3382 824)"/><path d="m1691.5 337.5v44h39v-45c37.5-23.5 35.5-47.5 35.5-47.5h-12c-9 17-23.5 30.5-23.5 30.5l-27.5.5-12.5.5a63.92 63.92 0 0 1 -23.5-31.5l-12 2s13 42 36.5 46.5" fill="#fff"/><circle cx="1760.5" cy="283.5" fill="#f9d0a7" r="9.5"/><circle cx="1660.5" cy="283.5" fill="#f9d0a7" r="9.5"/><path d="m1716.01 319.5-4.51 10h-5l-6-10z" fill="#006837"/><path d="m1711.5 329.5 3 41-5.59 7.34a.53.53 0 0 1 -.88 0l-4.53-7.38 3-41z" fill="#009245"/><path d="m1716.5 319.5-4.42 8.07a.8.8 0 0 0 1.17.91l15.7-9z" fill="#e6e6e6"/><path d="m1705.93 327.48-4.93-8h-9.5l14 8.42a.32.32 0 0 0 .43-.42z" fill="#e6e6e6"/><ellipse cx="1710.39" cy="290.14" fill="#f9d0a7" rx="32.39" ry="32.14"/><circle cx="1741.05" cy="296.78" fill="#f9d0a7" r="6.45"/><path d="m1693 309.23c0 2.63 2.36 4.77 6.5 4.77s6.5-2.14 6.5-4.77-2.86-5.23-7-5.23-6 2.59-6 5.23z" fill="#fff"/><path d="m1678.64 285.31c.5-5.47 1.35-6.86 2.26-11.77a1.09 1.09 0 0 1 .58-.78l22.76-11.61a1 1 0 0 1 .63-.11l22.37 2.81h10.3a1.09 1.09 0 0 1 .81 1.81 1.08 1.08 0 0 0 .24 1.64c2 1.21 5.73 4.39 3.93 10.72a1.17 1.17 0 0 1 -.09.24c-.44.8.73 4.45-.47 17.23a1.37 1.37 0 0 1 -2.71.15c-2.11-10.18-9.64-21.75-14.07-25.73a1.06 1.06 0 0 0 -.92-.23l-39.75 5.43a1.08 1.08 0 0 0 -.51.26c-.54.51-1.72 5.17-2.76 10.3a1.31 1.31 0 0 1 -2.6-.36z" fill="#1a1a1a"/><path d="m1709.41 280.82c2.59-.17 22.91-3.74 28.59-13.82 0 0-6-17-23-20 0 0-10.46-1.7-23.2 7.7-.37.28-5.86 6.35-6.12 6.73-1.92 2.73-6.2 9.82-11.94 11.87a.3.3 0 0 0 .06.58c5 .54 21 2 29.24-.84l-9.36 5.22a.2.2 0 0 0 .1.38c4.14-.39 20.88-2 23.17-3.79l-7.6 5.79a.1.1 0 0 0 .06.18z" fill="#333"/><rect fill="#f9d0a7" height="16" rx="8" stroke="#000" stroke-miterlimit="10" stroke-width="2" transform="matrix(-1 0 0 -1 3378 578)" width="20" x="1679" y="281"/><rect fill="#f9d0a7" height="16" rx="8" stroke="#000" stroke-miterlimit="10" stroke-width="2" transform="matrix(-1 0 0 -1 3428 578)" width="20" x="1704" y="281"/><path d="m1723.5 289.5-18.5-.5" stroke="#000" stroke-miterlimit="10" stroke-width="2"/><path d="m1698 289.5h-18" stroke="#000" stroke-miterlimit="10" stroke-width="2"/></svg>